<svg height='100px' width='100px'  fill="#006c5c" xmlns="http://www.w3.org/2000/svg" viewBox="0 0 100 100" x="0px" y="0px"><title>nounProject072019</title><g data-name="Layer 1"><path d="M41.31,24.36A12,12,0,0,0,27.66,22L14.83,9.19,9.17,14.84,22,27.68a12,12,0,0,0,2.33,13.65l6.83,6.83,17-17Z"></path><path d="M72,68c-2.81,0-5.21-3.17-6.72-6l4-4a4,4,0,0,0,0-5.65l-8.48-8.49-3.07,3.07L49.41,38.6a2,2,0,0,0-2.82,2.83l8.34,8.34-5.17,5.17L41.41,46.6a2,2,0,0,0-2.82,2.83l8.34,8.34-3.07,3.07,8.48,8.49a4,4,0,0,0,5.66,0l1.45-1.45c.07.12.14.24.22.35C64,74.67,68.74,76,72,76c5.59,0,8,6.08,8,8h8C88,78.27,82.65,68,72,68Z"></path></g></svg>