<svg height='100px' width='100px'  fill="#016a5c" xmlns="http://www.w3.org/2000/svg" xmlns:xlink="http://www.w3.org/1999/xlink" version="1.1" x="0px" y="0px" viewBox="0 0 64 64" style="enable-background:new 0 0 64 64;" xml:space="preserve"><g><path d="M9.012,28.09c0.1-1.108,0.303-2.211,0.578-3.29l1.245-0.71c0.227,0.104,0.455,0.2,0.685,0.286L12.237,27h5.526l0.718-2.625   c0.229-0.086,0.458-0.181,0.685-0.286l2.366,1.35l3.908-3.908l-1.35-2.366c0.104-0.227,0.2-0.455,0.286-0.685L27,17.763v-5.526   l-2.625-0.717c-0.086-0.23-0.182-0.458-0.286-0.685l0.68-1.192c1.065-0.269,2.154-0.455,3.241-0.552l0.91-0.082V1.006l-1.07,0.076   c-3.453,0.244-6.784,1.095-9.922,2.525L17.763,3h-5.526L11.52,5.625c-0.23,0.086-0.458,0.182-0.685,0.286l-2.366-1.35L4.561,8.469   l1.35,2.366c-0.104,0.227-0.2,0.455-0.286,0.685L3,12.237v5.526l0.568,0.155C2.114,21.079,1.249,24.44,1.002,27.93L0.927,29H8.93   L9.012,28.09z M26.921,3.173v4.026c-0.777,0.102-1.548,0.257-2.313,0.438l-3.076-3.077l-2.366,1.35   c-0.227-0.104-0.455-0.2-0.685-0.286l-0.012-0.043C21.151,4.321,23.981,3.498,26.921,3.173z M5,13.763l2.193-0.599l0.162-0.525   c0.142-0.46,0.334-0.921,0.572-1.371l0.256-0.486L7.054,8.804l1.75-1.75l1.979,1.129l0.486-0.256   c0.449-0.237,0.91-0.43,1.371-0.572l0.525-0.162L13.763,5h2.474l0.6,2.193l0.525,0.162c0.46,0.142,0.922,0.334,1.372,0.572   l0.485,0.256l1.978-1.128l1.749,1.749l-0.857,1.502l0,0l-0.272,0.477l0.256,0.486c0.237,0.449,0.43,0.91,0.572,1.371l0.162,0.525   L25,13.763v2.474l-2.193,0.6l-0.162,0.525c-0.142,0.46-0.334,0.922-0.572,1.371l-0.256,0.486l1.129,1.979l-1.75,1.749l-1.978-1.128   l-0.485,0.256c-0.45,0.237-0.911,0.43-1.372,0.572l-0.525,0.162L16.237,25h-2.474l-0.599-2.193l-0.525-0.162   c-0.46-0.142-0.921-0.334-1.371-0.572l-0.486-0.256l-1.979,1.129l-1.75-1.75l1.129-1.979l-0.256-0.486   c-0.237-0.449-0.43-0.91-0.572-1.371l-0.162-0.525L5,16.237V13.763z M3.094,27c0.328-2.975,1.166-5.836,2.45-8.541l0.081,0.022   c0.086,0.229,0.181,0.458,0.286,0.685l-1.35,2.366l3.027,3.027C7.393,25.364,7.228,26.178,7.12,27H3.094z"></path><path d="M15,21c3.309,0,6-2.691,6-6s-2.691-6-6-6s-6,2.691-6,6S11.691,21,15,21z M15,11c2.206,0,4,1.794,4,4s-1.794,4-4,4   s-4-1.794-4-4S12.794,11,15,11z"></path><path d="M52,61h-2V35h-8v26h-2V31h-8v30h-2V39h-8v10.445C14.762,46.502,9.72,39.763,9.012,31.91L8.93,31H0.927l0.076,1.07   C1.866,44.291,10.27,54.554,22,57.875V63h38V25h-8V61z M3.094,33H7.12C8.224,41.476,13.959,48.63,22,51.579v4.213   C11.706,52.644,4.277,43.715,3.094,33z M28,61h-4V41h4V61z M44,37h4v24h-4V37z M34,33h4v28h-4V33z M54,27h4v34h-4V27z"></path><path d="M56,13c-1.654,0-3,1.346-3,3s1.346,3,3,3s3-1.346,3-3S57.654,13,56,13z M56,17c-0.551,0-1-0.449-1-1s0.449-1,1-1   s1,0.449,1,1S56.551,17,56,17z"></path><path d="M56,9c-3.86,0-7,3.14-7,7c0,1.984,0.834,3.774,2.164,5.049l-4.342,6.08C46.559,27.053,46.287,27,46,27   c-0.895,0-1.691,0.402-2.241,1.026l-4.771-1.908C38.99,26.078,39,26.04,39,26c0-1.654-1.346-3-3-3s-3,1.346-3,3   c0,0.277,0.05,0.54,0.121,0.795l-5.384,3.768C27.246,30.212,26.649,30,26,30c-1.654,0-3,1.346-3,3s1.346,3,3,3s3-1.346,3-3   c0-0.277-0.05-0.54-0.121-0.795l5.383-3.768C34.754,28.788,35.351,29,36,29c0.895,0,1.691-0.402,2.241-1.026l4.771,1.908   C43.01,29.922,43,29.96,43,30c0,1.654,1.346,3,3,3s3-1.346,3-3c0-0.639-0.204-1.229-0.545-1.716l4.336-6.07   C53.753,22.713,54.843,23,56,23c3.86,0,7-3.14,7-7S59.86,9,56,9z M26,34c-0.551,0-1-0.449-1-1s0.449-1,1-1s1,0.449,1,1   S26.551,34,26,34z M36,27c-0.551,0-1-0.449-1-1s0.449-1,1-1s1,0.449,1,1S36.551,27,36,27z M46,31c-0.551,0-1-0.449-1-1s0.449-1,1-1   s1,0.449,1,1S46.551,31,46,31z M56,21c-2.757,0-5-2.243-5-5s2.243-5,5-5s5,2.243,5,5S58.757,21,56,21z"></path><rect x="43" y="17" width="2" height="2"></rect><rect x="31" y="17" width="2" height="2"></rect><rect x="39" y="17" width="2" height="2"></rect><rect x="35" y="17" width="2" height="2"></rect><rect x="31" y="13" width="14" height="2"></rect><rect x="31" y="9" width="14" height="2"></rect></g></svg>