<svg height='100px' width='100px'  fill="#016a5c" xmlns="http://www.w3.org/2000/svg" xmlns:xlink="http://www.w3.org/1999/xlink" viewBox="0 0 42 42" version="1.1" x="0px" y="0px"><title>Arrows - Down</title><desc>Created with Sketch.</desc><g stroke="none" stroke-width="1" fill="none" fill-rule="evenodd"><g fill-rule="nonzero" fill="#016a5c"><path d="M19,2 C19,1.47296836 19.188475,1.0237556 19.4865331,0.685039802 L19.5857864,0.585786438 C19.66185,0.50972289 19.7411732,0.441503674 19.8230852,0.380850932 C19.9935618,0.258623779 20.1823198,0.16318811 20.381194,0.0979260665 C20.5939068,0.0239226603 20.7978493,-0.00542582744 21,-0.00395704669 C21.2021507,-0.00542582744 21.4060932,0.0239226603 21.6046411,0.0870650966 C21.8176802,0.16318811 22.0064382,0.258623779 22.1769148,0.380850932 C22.2588268,0.441503674 22.33815,0.50972289 22.4142136,0.585786438 L22.5134669,0.685039802 C22.811525,1.0237556 23,1.47296836 23,2 L23,40 C23,42.6666667 19,42.6666667 19,40 L19,2 L22.4142136,3.41421356 L19,6.82842712 L19,2 Z M22.5134669,0.685039802 C22.811525,1.0237556 23,1.47296836 23,2 L23,40 C23,42.6666667 19,42.6666667 19,40 L19,2 L22.4142136,3.41421356 L4.41421356,21.4142136 C3.63316498,22.1952621 2.36683502,22.1952621 1.58578644,21.4142136 C0.804737854,20.633165 0.804737854,19.366835 1.58578644,18.5857864 L19.4865331,0.685039802 C19.5872247,0.570612964 19.7004226,0.46879671 19.8230852,0.380850932 C20.0036576,0.247143918 20.196811,0.150207533 20.3953589,0.0870650966 C20.5800682,0.0326640231 20.7890586,-0.00242439495 21,-0.00395704669 C21.2109414,-0.00242439495 21.4199318,0.0326640231 21.618806,0.0979260665 C21.803189,0.150207533 21.9963424,0.247143918 22.1769148,0.380850932 C22.2995774,0.46879671 22.4127753,0.570612964 22.5134669,0.685039802 L40.4142136,18.5857864 C41.1952621,19.366835 41.1952621,20.633165 40.4142136,21.4142136 C39.633165,22.1952621 38.366835,22.1952621 37.5857864,21.4142136 L19.5857864,3.41421356 L23,2 L23,40 L19,40 L22.5134669,0.685039802 Z" transform="translate(21.000000, 20.997995) scale(1, -1) translate(-21.000000, -20.997995) "></path></g></g></svg>