<svg height='100px' width='100px'  fill="#016a5c" xmlns="http://www.w3.org/2000/svg" xmlns:xlink="http://www.w3.org/1999/xlink" version="1.1" x="0px" y="0px" viewBox="0 0 1024 1024" style="enable-background:new 0 0 1024 1024;" xml:space="preserve"><g><g><g><path d="M905,926c-7.1,0-14.1,0-21.2,0c-19.2,0-38.4,0-57.5,0c-28.5,0-57,0-85.5,0c-34.6,0-69.2,0-103.8,0     c-37.8,0-75.7,0-113.5,0c-38.1,0-76.3,0-114.4,0c-35.5,0-71,0-106.4,0c-29.9,0-59.7,0-89.6,0c-21.3,0-42.6,0-63.9,0     c-9.8,0-19.5,0-29.3,0c-2.6,0-5.2-0.1-7.8-0.5c2.7,0.4,5.3,0.7,8,1.1c-4.5-0.7-8.7-1.8-12.9-3.5c2.4,1,4.8,2,7.2,3     c-2.8-1.2-5.5-2.6-8.1-4.3c-5.6-3.6,2.9,2.7,1.4,1.2c-1.1-1.1-2.3-2-3.4-3.1c-0.9-0.9-1.8-1.9-2.7-2.9c-3.3-3.6,4.8,6.9,0.8,0.9     c-1.7-2.6-3.1-5.3-4.3-8.1c1,2.4,2,4.8,3,7.2c-1.7-4.2-2.9-8.5-3.5-12.9c0.4,2.7,0.7,5.3,1.1,8c-1.1-8.7-0.5-17.8-0.5-26.5     c0-18.9,0-37.7,0-56.6c0-28.2,0-56.5,0-84.7c0-34.7,0-69.5,0-104.2c0-38,0-75.9,0-113.9c0-38.3,0-76.7,0-115     c0-35.7,0-71.4,0-107.1c0-30.1,0-60.1,0-90.2c0-21.4,0-42.9,0-64.3c0-9.8,0-19.7,0-29.5c0-2.6,0.1-5.2,0.5-7.8     c-0.4,2.7-0.7,5.3-1.1,8c0.7-4.5,1.8-8.7,3.5-12.9c-1,2.4-2,4.8-3,7.2c1.2-2.8,2.6-5.5,4.3-8.1c3.6-5.6-2.7,2.9-1.2,1.4     c1.1-1.1,2-2.3,3.1-3.4c0.9-0.9,1.9-1.8,2.9-2.7c3.6-3.3-6.9,4.8-0.9,0.8c2.6-1.7,5.3-3.1,8.1-4.3c-2.4,1-4.8,2-7.2,3     c4.2-1.7,8.5-2.9,12.9-3.5c-2.7,0.4-5.3,0.7-8,1.1c8.7-1.1,17.8-0.5,26.5-0.5c18.9,0,37.7,0,56.6,0c28.2,0,56.5,0,84.7,0     c34.7,0,69.5,0,104.2,0c38,0,75.9,0,113.9,0c38.3,0,76.7,0,115,0c35.7,0,71.4,0,107.1,0c30.1,0,60.1,0,90.2,0     c21.4,0,42.9,0,64.3,0c9.8,0,19.7,0,29.5,0c2.6,0,5.2,0.1,7.8,0.5c-2.7-0.4-5.3-0.7-8-1.1c4.5,0.7,8.7,1.8,12.9,3.5     c-2.4-1-4.8-2-7.2-3c2.8,1.2,5.5,2.6,8.1,4.3c5.6,3.6-2.9-2.7-1.4-1.2c1.1,1.1,2.3,2,3.4,3.1c0.9,0.9,1.8,1.9,2.7,2.9     c3.3,3.6-4.8-6.9-0.8-0.9c1.7,2.6,3.1,5.3,4.3,8.1c-1-2.4-2-4.8-3-7.2c1.7,4.2,2.9,8.5,3.5,12.9c-0.4-2.7-0.7-5.3-1.1-8     c1.1,8.7,0.5,17.8,0.5,26.5c0,18.9,0,37.7,0,56.6c0,28.2,0,56.5,0,84.7c0,34.7,0,69.5,0,104.2c0,38,0,75.9,0,113.9     c0,38.3,0,76.7,0,115c0,35.7,0,71.4,0,107.1c0,30.1,0,60.1,0,90.2c0,21.4,0,42.9,0,64.3c0,9.8,0,19.7,0,29.5     c0,2.6-0.1,5.2-0.5,7.8c0.4-2.7,0.7-5.3,1.1-8c-0.7,4.5-1.8,8.7-3.5,12.9c1-2.4,2-4.8,3-7.2c-1.2,2.8-2.6,5.5-4.3,8.1     c-3.6,5.6,2.7-2.9,1.2-1.4c-1.1,1.1-2,2.3-3.1,3.4c-0.9,0.9-1.9,1.8-2.9,2.7c-3.6,3.3,6.9-4.8,0.9-0.8c-2.6,1.7-5.3,3.1-8.1,4.3     c2.4-1,4.8-2,7.2-3c-4.2,1.7-8.5,2.9-12.9,3.5c2.7-0.4,5.3-0.7,8-1.1C909.6,925.8,907.3,926,905,926c-15.7,0.2-30.7,13.6-30,30     c0.7,16.1,13.2,30.2,30,30c20.6-0.3,39.5-7.9,54.9-21.5c15.3-13.5,23.4-32.7,25.6-52.6c0.5-4,0.5-8,0.5-12c0-14.3,0-28.5,0-42.8     c0-26.1,0-52.1,0-78.2c0-34.2,0-68.4,0-102.6c0-39,0-78,0-117c0-40.3,0-80.7,0-121c0-38.2,0-76.5,0-114.7c0-32.7,0-65.4,0-98.1     c0-23.7,0-47.5,0-71.2c0-11.3,0-22.6,0-34c0-21.4-7.8-41.5-22.4-57.3c-15.3-16.5-37.6-25.1-59.8-25.1c-11,0-21.9,0-32.9,0     c-23.5,0-46.9,0-70.4,0c-32.5,0-65,0-97.6,0c-38.1,0-76.3,0-114.4,0c-40.3,0-80.7,0-121,0c-39.2,0-78.4,0-117.7,0     c-34.3,0-68.7,0-103,0c-26.2,0-52.4,0-78.5,0c-14.6,0-29.2,0-43.8,0c-2.8,0-5.6-0.1-8.4,0.1c-20.3,1.1-39.4,8.9-54,23.2     c-14.7,14.3-22.4,33.3-24,53.5c-0.7,8.7-0.2,17.7-0.2,26.4c0,20.7,0,41.5,0,62.2c0,30.8,0,61.6,0,92.3c0,37,0,73.9,0,110.9     c0,40.3,0,80.6,0,120.8c0,39.7,0,79.4,0,119c0,35.8,0,71.6,0,107.4c0,28.5,0,57,0,85.4c0,17.7,0,35.4,0,53.2c0,3.8,0,7.5,0,11.3     c0.1,21.9,8.3,43.5,24.2,58.9c15.6,15.2,36.4,23.2,58.2,23.3c3.8,0,7.6,0,11.4,0c17.9,0,35.8,0,53.8,0c28.6,0,57.2,0,85.8,0     c35.9,0,71.7,0,107.6,0c39.7,0,79.4,0,119.1,0c40.1,0,80.2,0,120.3,0c37.1,0,74.1,0,111.2,0c30.6,0,61.1,0,91.7,0     c20.7,0,41.4,0,62.1,0c7.2,0,14.5,0,21.7,0c15.7,0,30.7-13.8,30-30C934.3,939.7,921.8,926,905,926z"></path></g></g><g><g><path d="M542,956c0-7.9,0-15.8,0-23.7c0-21.5,0-43,0-64.6c0-31.8,0-63.7,0-95.5c0-38.8,0-77.7,0-116.5     c0-42.6,0-85.1,0-127.7c0-43,0-85.9,0-128.9c0-40.1,0-80.1,0-120.2c0-33.9,0-67.7,0-101.6c0-24.4,0-48.7,0-73.1     c0-11.6,0.1-23.1,0-34.7c0-0.5,0-1,0-1.5c0-15.7-13.8-30.7-30-30c-16.3,0.7-30,13.2-30,30c0,7.9,0,15.8,0,23.7     c0,21.5,0,43,0,64.6c0,31.8,0,63.7,0,95.5c0,38.8,0,77.7,0,116.5c0,42.6,0,85.1,0,127.7c0,43,0,85.9,0,128.9     c0,40.1,0,80.1,0,120.2c0,33.9,0,67.7,0,101.6c0,24.4,0,48.7,0,73.1c0,11.6-0.1,23.1,0,34.7c0,0.5,0,1,0,1.5     c0,15.7,13.8,30.7,30,30C528.3,985.3,542,972.8,542,956L542,956z"></path></g></g><g><g><path d="M68,542c7.9,0,15.8,0,23.7,0c21.5,0,43,0,64.6,0c31.8,0,63.7,0,95.5,0c38.8,0,77.7,0,116.5,0     c42.6,0,85.1,0,127.7,0c43,0,85.9,0,128.9,0c40.1,0,80.1,0,120.2,0c33.9,0,67.7,0,101.6,0c24.4,0,48.7,0,73.1,0     c11.6,0,23.1,0.1,34.7,0c0.5,0,1,0,1.5,0c15.7,0,30.7-13.8,30-30c-0.7-16.3-13.2-30-30-30c-7.9,0-15.8,0-23.7,0     c-21.5,0-43,0-64.6,0c-31.8,0-63.7,0-95.5,0c-38.8,0-77.7,0-116.5,0c-42.6,0-85.1,0-127.7,0c-43,0-85.9,0-128.9,0     c-40.1,0-80.1,0-120.2,0c-33.9,0-67.7,0-101.6,0c-24.4,0-48.7,0-73.1,0c-11.6,0-23.1-0.1-34.7,0c-0.5,0-1,0-1.5,0     c-15.7,0-30.7,13.8-30,30C38.7,528.3,51.2,542,68,542L68,542z"></path></g></g><g><g><path d="M319.5,385.3c0-22,0-44,0-66c0-35.3,0-70.5,0-105.8c0-8.1,0-16.1,0-24.2c0-15.7-13.8-30.7-30-30     c-16.3,0.7-30,13.2-30,30c0,22,0,44,0,66c0,35.3,0,70.5,0,105.8c0,8.1,0,16.1,0,24.2c0,15.7,13.8,30.7,30,30     C305.8,414.6,319.5,402.2,319.5,385.3L319.5,385.3z"></path></g></g><g><g><path d="M191.5,317.3c22,0,44,0,66,0c35.3,0,70.5,0,105.8,0c8.1,0,16.1,0,24.2,0c15.7,0,30.7-13.8,30-30     c-0.7-16.3-13.2-30-30-30c-22,0-44,0-66,0c-35.3,0-70.5,0-105.8,0c-8.1,0-16.1,0-24.2,0c-15.7,0-30.7,13.8-30,30     C162.2,303.6,174.7,317.3,191.5,317.3L191.5,317.3z"></path></g></g><g><g><path d="M380,780.7c-15.6-15.6-31.1-31.1-46.7-46.7c-24.9-24.9-49.9-49.9-74.8-74.8c-5.7-5.7-11.4-11.4-17.1-17.1     c-11.1-11.1-31.5-11.9-42.4,0c-11,12-11.9,30.6,0,42.4c15.6,15.6,31.1,31.1,46.7,46.7c24.9,24.9,49.9,49.9,74.8,74.8     c5.7,5.7,11.4,11.4,17.1,17.1c11.1,11.1,31.5,11.9,42.4,0C391,811.2,391.9,792.6,380,780.7L380,780.7z"></path></g></g><g><g><path d="M241.4,823.2c15.6-15.6,31.1-31.1,46.7-46.7c24.9-24.9,49.9-49.9,74.8-74.8c5.7-5.7,11.4-11.4,17.1-17.1     c11.1-11.1,11.9-31.5,0-42.4c-12-11-30.6-11.9-42.4,0c-15.6,15.6-31.1,31.1-46.7,46.7c-24.9,24.9-49.9,49.9-74.8,74.8     c-5.7,5.7-11.4,11.4-17.1,17.1c-11.1,11.1-11.9,31.5,0,42.4C211,834.2,229.6,835,241.4,823.2L241.4,823.2z"></path></g></g><g><g><path d="M635,317.3c22,0,44,0,66,0c35.3,0,70.5,0,105.8,0c8.1,0,16.1,0,24.2,0c15.7,0,30.7-13.8,30-30     c-0.7-16.3-13.2-30-30-30c-22,0-44,0-66,0c-35.3,0-70.5,0-105.8,0c-8.1,0-16.1,0-24.2,0c-15.7,0-30.7,13.8-30,30     C605.7,303.6,618.2,317.3,635,317.3L635,317.3z"></path></g></g><g><g><path d="M635,717.7c22,0,44,0,66,0c35.3,0,70.5,0,105.8,0c8.1,0,16.1,0,24.2,0c15.7,0,30.7-13.8,30-30     c-0.7-16.3-13.2-30-30-30c-22,0-44,0-66,0c-35.3,0-70.5,0-105.8,0c-8.1,0-16.1,0-24.2,0c-15.7,0-30.7,13.8-30,30     C605.7,703.9,618.2,717.7,635,717.7L635,717.7z"></path></g></g><g><g><path d="M635,807.7c22,0,44,0,66,0c35.3,0,70.5,0,105.8,0c8.1,0,16.1,0,24.2,0c15.7,0,30.7-13.8,30-30     c-0.7-16.3-13.2-30-30-30c-22,0-44,0-66,0c-35.3,0-70.5,0-105.8,0c-8.1,0-16.1,0-24.2,0c-15.7,0-30.7,13.8-30,30     C605.7,793.9,618.2,807.7,635,807.7L635,807.7z"></path></g></g></g></svg>