<svg xmlns="http://www.w3.org/2000/svg" xmlns:xlink="http://www.w3.org/1999/xlink" width="100" height="100" viewBox="0 0 100 100"><rect width="100%" height="100%" fill="#ffffff"></rect><g transform="translate(50 50) scale(0.69 0.69) rotate(0) translate(-50 -50)" style="fill:#016a5c"><svg fill="#016a5c" xmlns="http://www.w3.org/2000/svg" xmlns:xlink="http://www.w3.org/1999/xlink" version="1.1" x="0px" y="0px" viewBox="0 0 1024 1024" style="enable-background:new 0 0 1024 1024;" xml:space="preserve"><g><path d="M330.5,894.5c-64.6,0-125.3-25.1-170.9-70.8C114,778.1,88.8,717.4,88.8,652.8c0-64.6,25.1-125.3,70.8-170.9L433,208.5   l14.1,14.1L173.8,496.1c-41.9,41.9-64.9,97.6-64.9,156.8c0,59.2,23.1,114.9,64.9,156.7c41.9,41.9,97.6,65,156.8,65   c59.2,0,114.9-23.1,156.7-64.9l385.4-385.4c64-64,64-168.2,0-232.2c-64-64-168.2-64-232.2,0L255.1,577.4   c-20.2,20.2-31.3,47-31.3,75.5c0,28.5,11.1,55.2,31.3,75.3c20.2,20.2,47,31.3,75.5,31.3c0,0,0,0,0.1,0c28.5,0,55.2-11.1,75.3-31.3   l273.4-273.4l14.1,14.1L420.1,742.4c-23.9,23.9-55.6,37.1-89.5,37.1c0,0,0,0-0.1,0c-33.8,0-65.7-13.2-89.6-37.1   c-23.9-23.9-37.1-55.6-37.1-89.5c0-33.9,13.2-65.7,37.1-89.7l385.4-385.4c71.8-71.8,188.6-71.8,260.4,0   c71.8,71.8,71.8,188.6,0,260.4L501.4,823.7C455.8,869.3,395.1,894.5,330.5,894.5z"></path><path d="M866.8,308.2h-20c0-49.6-40.4-90-90-90v-20C817.5,198.2,866.8,247.5,866.8,308.2z"></path></g></svg></g></svg>