<svg xmlns="http://www.w3.org/2000/svg" xmlns:xlink="http://www.w3.org/1999/xlink" width="100" height="100" viewBox="0 0 100 100"><rect width="100%" height="100%" fill="#ffffff"></rect><g transform="translate(50 50) scale(0.69 0.69) rotate(0) translate(-50 -50)" style="fill:#016a5c"><svg fill="#016a5c" xmlns:x="http://ns.adobe.com/Extensibility/1.0/" xmlns:i="http://ns.adobe.com/AdobeIllustrator/10.0/" xmlns:graph="http://ns.adobe.com/Graphs/1.0/" xmlns="http://www.w3.org/2000/svg" xmlns:xlink="http://www.w3.org/1999/xlink" version="1.1" x="0px" y="0px" viewBox="0 0 70 70" style="enable-background:new 0 0 70 70;" xml:space="preserve"><metadata><?xpacket begin="&#65279;" id="W5M0MpCehiHzreSzNTczkc9d"?><x:xmpmeta xmlns:x="adobe:ns:meta/" x:xmptk="Adobe XMP Core 5.6-c145 79.163499, 2018/08/13-16:40:22        "></x:xmpmeta><?xpacket end="w"?></metadata><path d="M68,3.6875c0-0.5527344-0.4477539-1-1-1H38.6835938c-0.5522461,0-1,0.4472656-1,1v28.3164062c0,0.5527344,0.4477539,1,1,1  H67c0.5522461,0,1-0.4472656,1-1V3.6875z M66,31.0039062H39.6835938V4.6875H66V31.0039062z"></path><path d="M2,32.0039062c0,0.5527344,0.4477539,1,1,1h28.3164062c0.5522461,0,1-0.4472656,1-1V3.6875c0-0.5527344-0.4477539-1-1-1H3  c-0.5522461,0-1,0.4472656-1,1V32.0039062z M4,4.6875h26.3164062v26.3164062H4V4.6875z"></path><path d="M67,36.9960938H38.6835938c-0.5522461,0-1,0.4472656-1,1V66.3125c0,0.5527344,0.4477539,1,1,1H67  c0.5522461,0,1-0.4472656,1-1V37.9960938C68,37.4433594,67.5522461,36.9960938,67,36.9960938z M66,65.3125H39.6835938V38.9960938H66  V65.3125z"></path><path d="M47.2978516,53.1542969h4.5439453v4.5439453c0,0.5527344,0.4477539,1,1,1s1-0.4472656,1-1v-4.5439453h4.5439453  c0.5522461,0,1-0.4472656,1-1s-0.4477539-1-1-1h-4.5439453v-4.5439453c0-0.5527344-0.4477539-1-1-1s-1,0.4472656-1,1v4.5439453  h-4.5439453c-0.5522461,0-1,0.4472656-1,1S46.7456055,53.1542969,47.2978516,53.1542969z"></path><path d="M48.2143555,23.2402344c0.1953125,0.1953125,0.4511719,0.2929688,0.7070312,0.2929688  s0.5117188-0.0976562,0.7070312-0.2929688l3.2131348-3.2128906l3.2131348,3.2128906  c0.1953125,0.1953125,0.4511719,0.2929688,0.7070312,0.2929688s0.5117188-0.0976562,0.7070312-0.2929688  c0.390625-0.390625,0.390625-1.0234375,0-1.4140625l-3.2130737-3.2128906l3.2130737-3.2128906  c0.390625-0.390625,0.390625-1.0234375,0-1.4140625s-1.0234375-0.390625-1.4140625,0l-3.2131348,3.2128906l-3.2131348-3.2128906  c-0.390625-0.390625-1.0234375-0.390625-1.4140625,0s-0.390625,1.0234375,0,1.4140625l3.2130737,3.2128906l-3.2130737,3.2128906  C47.8237305,22.2167969,47.8237305,22.8496094,48.2143555,23.2402344z"></path><path d="M22.7021484,51.1542969H11.6142578c-0.5522461,0-1,0.4472656-1,1s0.4477539,1,1,1h11.0878906c0.5522461,0,1-0.4472656,1-1  S23.2543945,51.1542969,22.7021484,51.1542969z"></path><path d="M22.7021484,16.8457031H11.6142578c-0.5522461,0-1,0.4472656-1,1s0.4477539,1,1,1h11.0878906c0.5522461,0,1-0.4472656,1-1  S23.2543945,16.8457031,22.7021484,16.8457031z"></path><path d="M2,66.3125c0,0.5527344,0.4477539,1,1,1h28.3164062c0.5522461,0,1-0.4472656,1-1V37.9960938c0-0.5527344-0.4477539-1-1-1H3  c-0.5522461,0-1,0.4472656-1,1V66.3125z M4,38.9960938h26.3164062V65.3125H4V38.9960938z"></path><path d="M16.9023438,13.0888672h0.5117188c0.5522461,0,1-0.4472656,1-1s-0.4477539-1-1-1h-0.5117188c-0.5522461,0-1,0.4472656-1,1  S16.3500977,13.0888672,16.9023438,13.0888672z"></path><path d="M17.4140625,22.6035156h-0.5117188c-0.5522461,0-1,0.4472656-1,1s0.4477539,1,1,1h0.5117188c0.5522461,0,1-0.4472656,1-1  S17.9663086,22.6035156,17.4140625,22.6035156z"></path></svg></g></svg>