<svg height='100px' width='100px'  fill="#016a5c" xmlns="http://www.w3.org/2000/svg" xmlns:xlink="http://www.w3.org/1999/xlink" version="1.1" x="0px" y="0px" viewBox="0 0 100 100" style="enable-background:new 0 0 100 100;" xml:space="preserve"><g><g><g><circle cx="75.4" cy="41" r="3.9"></circle><path d="M84.4,7.8h-5.1V3.9c0-2.2-1.7-3.9-3.9-3.9s-3.9,1.7-3.9,3.9v3.9H53.7V3.9C53.7,1.7,52,0,49.8,0c-2.2,0-3.9,1.7-3.9,3.9     v3.9H28.3V3.9c0-2.2-1.7-3.9-3.9-3.9s-3.9,1.7-3.9,3.9v3.9h-4.9C7,7.8,0,14.8,0,23.4v60.9C0,93,7,100,15.6,100h29.9     c2.2,0,3.9-1.7,3.9-3.9s-1.7-3.9-3.9-3.9H15.6c-4.3,0-7.8-3.5-7.8-7.8V23.4c0-4.3,3.5-7.8,7.8-7.8h4.9v3.9c0,2.2,1.7,3.9,3.9,3.9     s3.9-1.7,3.9-3.9v-3.9h17.6v3.9c0,2.2,1.7,3.9,3.9,3.9c2.2,0,3.9-1.7,3.9-3.9v-3.9h17.8v3.9c0,2.2,1.7,3.9,3.9,3.9     s3.9-1.7,3.9-3.9v-3.9h5.1c4.3,0,7.8,3.5,7.8,7.8v22.3c0,2.2,1.7,3.9,3.9,3.9s3.9-1.7,3.9-3.9V23.4C100,14.8,93,7.8,84.4,7.8z"></path><path d="M76.4,52.7c-13,0-23.6,10.6-23.6,23.6S63.3,100,76.4,100S100,89.4,100,76.4S89.4,52.7,76.4,52.7z M76.4,92.2     c-8.7,0-15.8-7.1-15.8-15.8s7.1-15.8,15.8-15.8s15.8,7.1,15.8,15.8S85.1,92.2,76.4,92.2z"></path><path d="M82,72.5h-1.8v-4.1c0-2.2-1.7-3.9-3.9-3.9s-3.9,1.7-3.9,3.9v8c0,2.2,1.7,3.9,3.9,3.9H82c2.2,0,3.9-1.7,3.9-3.9     S84.2,72.5,82,72.5z"></path><circle cx="58.4" cy="41" r="3.9"></circle><circle cx="41.4" cy="58" r="3.9"></circle><circle cx="24.4" cy="41" r="3.9"></circle><circle cx="24.4" cy="58" r="3.9"></circle><circle cx="24.4" cy="75" r="3.9"></circle><circle cx="41.4" cy="75" r="3.9"></circle><circle cx="41.4" cy="41" r="3.9"></circle></g></g></g></svg>