<svg height='100px' width='100px'  fill="#006c5c" xmlns="http://www.w3.org/2000/svg" xmlns:xlink="http://www.w3.org/1999/xlink" version="1.1" x="0px" y="0px" viewBox="0 0 100 100" enable-background="new 0 0 100 100" xml:space="preserve"><path d="M26.966,6.218c-11.312,0-20.515,9.203-20.515,20.515c0,11.313,9.203,20.516,20.515,20.516  c11.313,0,20.516-9.203,20.516-20.516C47.482,15.421,38.279,6.218,26.966,6.218z M38.861,21.369L21.505,35.231  c-0.276,0.221-0.606,0.328-0.936,0.328c-0.418,0-0.834-0.174-1.13-0.513l-4.561-5.222c-0.545-0.624-0.481-1.572,0.143-2.117  c0.625-0.544,1.571-0.48,2.117,0.143l3.616,4.141l16.234-12.966c0.648-0.517,1.592-0.411,2.108,0.236  C39.614,19.909,39.508,20.853,38.861,21.369z"></path><path d="M26.966,51.753c-11.312,0-20.515,9.202-20.515,20.514c0,11.313,9.203,20.517,20.515,20.517  c11.313,0,20.516-9.204,20.516-20.517C47.482,60.955,38.279,51.753,26.966,51.753z M38.861,66.903L21.505,80.765  c-0.276,0.221-0.606,0.328-0.936,0.328c-0.418,0-0.834-0.175-1.13-0.514l-4.561-5.223c-0.545-0.624-0.481-1.571,0.143-2.116  c0.625-0.544,1.573-0.48,2.117,0.144l3.616,4.141L36.989,64.56c0.648-0.517,1.592-0.41,2.108,0.235  C39.614,65.442,39.508,66.387,38.861,66.903z"></path><path d="M72.81,6.218c-11.313,0-20.516,9.203-20.516,20.515c0,11.313,9.203,20.516,20.516,20.516  c11.312,0,20.515-9.203,20.515-20.516C93.324,15.421,84.121,6.218,72.81,6.218z M84.704,21.369L67.349,35.231  c-0.276,0.221-0.607,0.328-0.936,0.328c-0.419,0-0.835-0.174-1.131-0.513l-4.561-5.222c-0.545-0.624-0.48-1.572,0.144-2.117  s1.57-0.479,2.116,0.143l3.616,4.141l16.233-12.966c0.647-0.517,1.593-0.411,2.108,0.236C85.457,19.909,85.351,20.853,84.704,21.369  z"></path><path d="M72.81,51.753c-11.313,0-20.516,9.202-20.516,20.514c0,11.313,9.203,20.517,20.516,20.517  c11.312,0,20.515-9.204,20.515-20.517C93.324,60.955,84.121,51.753,72.81,51.753z"></path></svg>