<svg height='100px' width='100px'  fill="#09645c" xmlns="http://www.w3.org/2000/svg" xmlns:xlink="http://www.w3.org/1999/xlink" version="1.1" x="0px" y="0px" viewBox="0 0 100 100" enable-background="new 0 0 100 100" xml:space="preserve"><g><path d="M81.025,85.552H65.656c-0.02-0.758-0.02-1.961,0.086-3.335c0.26,0.032,0.523,0.054,0.793,0.054   c3.568,0,6.473-2.904,6.473-6.475c0-1.191-0.336-2.354-0.963-3.368c1.551-0.936,2.531-2.614,2.531-4.475   c0-2.897-2.355-5.255-5.254-5.255s-5.256,2.357-5.256,5.255c0,0.6,0.105,1.192,0.307,1.755c-2.559,0.895-4.314,3.295-4.314,6.088   c0,2.661,1.615,4.95,3.916,5.944c-0.141,1.562-0.145,2.939-0.121,3.812H48.076c-0.027-1.079-0.018-3.065,0.287-5.142   c0.98-0.018,1.914-0.357,2.668-0.968c0.777,0.627,1.738,0.975,2.75,0.975c2.434,0,4.414-1.981,4.414-4.416   c0-2.21-1.633-4.047-3.754-4.366c0.012-0.035,0.021-0.071,0.033-0.106c2.379-0.064,4.295-2.02,4.295-4.414   c0-2.435-1.98-4.416-4.416-4.416c-1.98,0-3.658,1.296-4.209,3.129c-2.379,0.063-4.295,2.02-4.295,4.414   c0,0.637,0.143,1.263,0.41,1.838c-1.438,0.741-2.393,2.238-2.393,3.922c0,1.835,1.127,3.411,2.725,4.076   c-0.334,2.214-0.35,4.302-0.318,5.475H31.701c-0.02-0.758-0.02-1.961,0.086-3.335c0.26,0.032,0.523,0.054,0.791,0.054   c3.57,0,6.477-2.904,6.477-6.475c0-1.191-0.338-2.354-0.965-3.368c1.551-0.936,2.533-2.615,2.533-4.475   c0-2.897-2.357-5.255-5.256-5.255s-5.256,2.357-5.256,5.255c0,0.601,0.104,1.193,0.307,1.755c-2.559,0.895-4.314,3.295-4.314,6.088   c0,2.661,1.615,4.95,3.916,5.944c-0.141,1.562-0.145,2.939-0.121,3.812H17.383c-0.498,0-0.9,0.403-0.9,0.9s0.402,0.9,0.9,0.9   h63.643c0.496,0,0.898-0.403,0.898-0.9S81.521,85.552,81.025,85.552z M27.902,75.796c0-2.305,1.662-4.238,3.951-4.6   c0.301-0.047,0.557-0.243,0.682-0.521c0.123-0.278,0.1-0.6-0.066-0.855c-0.365-0.563-0.557-1.209-0.557-1.866   c0-1.905,1.551-3.454,3.455-3.454c1.906,0,3.455,1.549,3.455,3.454c0,1.488-0.963,2.802-2.396,3.269   c-0.289,0.094-0.512,0.329-0.59,0.623c-0.08,0.295-0.004,0.609,0.201,0.836c0.785,0.869,1.217,1.976,1.217,3.115   c0,2.577-2.098,4.674-4.676,4.674c-0.201,0-0.395-0.034-0.59-0.06c0.238-1.617,0.652-3.28,1.375-4.594   c0.24-0.436,0.082-0.982-0.354-1.223c-0.434-0.24-0.982-0.082-1.223,0.354c-0.791,1.434-1.256,3.182-1.529,4.881   C28.857,79.02,27.902,77.524,27.902,75.796z M45.668,76.001c0-1.255,0.896-2.334,2.131-2.566c0.316-0.061,0.578-0.285,0.684-0.591   s0.039-0.645-0.174-0.888c-0.301-0.343-0.66-0.919-0.66-1.715c0-1.442,1.174-2.615,2.617-2.615c0.154,0,0.305,0.022,0.453,0.048   c0.246,0.041,0.5-0.02,0.699-0.172s0.326-0.382,0.35-0.631c0.127-1.353,1.238-2.372,2.586-2.372c1.443,0,2.617,1.173,2.617,2.615   s-1.174,2.615-2.617,2.615c-0.156,0-0.309-0.022-0.457-0.048c-0.248-0.039-0.5,0.022-0.697,0.175   c-0.199,0.152-0.324,0.38-0.348,0.629c-0.055,0.584-0.289,1.113-0.678,1.53c-0.275,0.295-0.32,0.736-0.111,1.081   s0.621,0.508,1.01,0.4c0.275-0.076,0.5-0.111,0.709-0.111c1.441,0,2.615,1.173,2.615,2.615s-1.174,2.615-2.615,2.615   c-0.793,0-1.537-0.366-2.043-1.005c-0.17-0.216-0.43-0.342-0.705-0.343c-0.275,0-0.535,0.126-0.707,0.342   c-0.41,0.52-0.982,0.847-1.605,0.955c0.244-0.987,0.57-1.937,1.018-2.749c0.24-0.436,0.082-0.982-0.354-1.223   c-0.434-0.24-0.982-0.082-1.223,0.354c-0.543,0.986-0.932,2.124-1.213,3.291C46.186,77.781,45.668,76.954,45.668,76.001z    M61.857,75.796c0-2.305,1.662-4.238,3.949-4.6c0.301-0.047,0.559-0.243,0.682-0.521c0.125-0.277,0.1-0.6-0.064-0.855   c-0.365-0.563-0.557-1.209-0.557-1.866c0-1.905,1.551-3.454,3.455-3.454s3.455,1.549,3.455,3.454c0,1.489-0.963,2.802-2.396,3.269   c-0.289,0.094-0.512,0.329-0.592,0.623c-0.078,0.295-0.002,0.609,0.203,0.836c0.785,0.869,1.217,1.976,1.217,3.115   c0,2.577-2.098,4.674-4.674,4.674c-0.203,0-0.396-0.034-0.592-0.06c0.236-1.617,0.65-3.281,1.375-4.594   c0.24-0.436,0.082-0.982-0.354-1.223c-0.434-0.24-0.982-0.082-1.223,0.354c-0.791,1.434-1.256,3.182-1.529,4.881   C62.812,79.02,61.857,77.524,61.857,75.796z"></path><path d="M23.99,51.72c-0.48,0.13-0.764,0.624-0.635,1.104l0.783,2.896c0.109,0.401,0.473,0.666,0.869,0.666   c0.076,0,0.156-0.011,0.234-0.031c0.48-0.13,0.764-0.624,0.635-1.104l-0.783-2.896C24.965,51.875,24.471,51.597,23.99,51.72z"></path><path d="M30.42,51.72c-0.479,0.13-0.764,0.624-0.633,1.104l0.781,2.896c0.109,0.401,0.473,0.666,0.869,0.666   c0.078,0,0.156-0.011,0.236-0.031c0.479-0.13,0.764-0.624,0.633-1.104l-0.783-2.896C31.395,51.875,30.9,51.592,30.42,51.72z"></path><path d="M36.852,51.72c-0.479,0.13-0.764,0.624-0.635,1.104L37,55.72c0.107,0.401,0.471,0.666,0.867,0.666   c0.078,0,0.156-0.011,0.236-0.031c0.479-0.13,0.764-0.624,0.635-1.104l-0.783-2.896C37.826,51.875,37.33,51.592,36.852,51.72z"></path><path d="M60.391,51.72c-0.48,0.13-0.764,0.624-0.635,1.104l0.783,2.896c0.107,0.401,0.471,0.666,0.867,0.666   c0.078,0,0.158-0.011,0.236-0.031c0.479-0.13,0.764-0.624,0.633-1.104l-0.781-2.896C61.364,51.875,60.87,51.592,60.391,51.72z"></path><path d="M66.821,51.72c-0.479,0.13-0.764,0.624-0.633,1.104l0.781,2.896c0.109,0.401,0.473,0.666,0.869,0.666   c0.078,0,0.156-0.011,0.234-0.031c0.48-0.13,0.764-0.624,0.635-1.104l-0.783-2.896C67.795,51.875,67.303,51.592,66.821,51.72z"></path><path d="M73.252,51.72c-0.48,0.13-0.764,0.624-0.635,1.104l0.781,2.896c0.109,0.401,0.473,0.666,0.869,0.666   c0.078,0,0.156-0.011,0.234-0.031c0.48-0.13,0.766-0.624,0.635-1.104l-0.781-2.896C74.227,51.875,73.733,51.592,73.252,51.72z"></path><path d="M21.674,48.007c0.684,0,1.354-0.104,1.998-0.307c2.098,1.952,4.863,2.121,7.977,2.121s5.877-0.169,7.975-2.122   c0.645,0.204,1.312,0.308,1.998,0.308c2.852,0,5.273-1.819,6.203-4.353c0.291,0.003,0.584,0.004,0.879,0.005l0.588,3.658   l-3.848,4.581c-0.121,0.145-0.193,0.323-0.209,0.511l-0.266,3.351l-5.783,4.311c-0.4,0.297-0.482,0.861-0.186,1.26   c0.178,0.237,0.449,0.362,0.723,0.362c0.188,0,0.377-0.059,0.537-0.179l4.518-3.367l-0.205,2.571   c-0.041,0.495,0.328,0.93,0.822,0.971c0.025,0.003,0.051,0.004,0.076,0.004c0.463,0,0.857-0.355,0.896-0.826l0.641-8.031   l1.408-1.678l2.742,2.667l-1.086,2.071c-0.01,0.021-0.012,0.046-0.021,0.067c-0.006,0.018-0.021,0.029-0.027,0.047   c-0.01,0.025-0.004,0.052-0.012,0.078c-0.01,0.035-0.027,0.067-0.033,0.104l-0.615,4.479c-0.068,0.492,0.277,0.946,0.77,1.014   c0.041,0.006,0.082,0.009,0.123,0.009c0.443,0,0.828-0.327,0.891-0.778l0.465-3.379l4.551,1.633l1.332,0.719l0.926,1.401   c0.174,0.262,0.461,0.404,0.752,0.404c0.17,0,0.344-0.049,0.496-0.149c0.414-0.274,0.527-0.833,0.254-1.247l-1.301-1.967   c-0.107-0.162-0.264-0.285-0.447-0.351l-6.027-2.163l0.547-1.043l3.652,1.384c0.105,0.04,0.213,0.059,0.318,0.059   c0.363,0,0.705-0.222,0.842-0.581c0.176-0.465-0.059-0.984-0.523-1.161l-4.223-1.602l-3.182-3.097l1.365-1.627   c0.176-0.208,0.246-0.483,0.195-0.749l-0.307-1.878c1.215,1.509,3.062,2.486,5.145,2.486c0.686,0,1.354-0.104,1.998-0.308   c2.098,1.953,4.861,2.122,7.975,2.122s5.879-0.169,7.977-2.122c0.645,0.204,1.314,0.308,2,0.308c3.648,0,6.619-2.971,6.619-6.621   c0-3.561-2.826-6.475-6.352-6.615c-0.76-1.596-1.871-2.942-3.203-3.999c-0.396-4.78-4.379-8.558-9.246-8.618   c-2.674-5.854-8.473-9.604-14.945-9.604s-12.27,3.749-14.943,9.603c-4.869,0.061-8.852,3.839-9.25,8.62   c-1.33,1.057-2.441,2.402-3.201,3.998c-3.527,0.141-6.352,3.055-6.352,6.615C15.053,45.036,18.021,48.007,21.674,48.007z    M74.781,36.023c0.146,0.357,0.604,0.569,0.98,0.55c0.053-0.004,0.107-0.008,0.164-0.008c2.656,0,4.818,2.162,4.818,4.82   s-2.162,4.82-4.818,4.82c-0.652,0-1.287-0.128-1.883-0.38c-0.354-0.149-0.762-0.06-1.018,0.226   c-1.65,1.824-4.076,1.969-7.076,1.969c-2.998,0-5.422-0.145-7.074-1.969c-0.174-0.193-0.418-0.297-0.668-0.297   c-0.117,0-0.236,0.023-0.35,0.071c-0.596,0.252-1.229,0.38-1.881,0.38c-1.855,0-3.447-1.066-4.248-2.61   c3.418-0.176,6.441-0.831,8.814-3.152c0.99,0.344,2.023,0.519,3.084,0.519c4.652,0,8.516-3.401,9.262-7.846   C73.676,33.946,74.326,34.92,74.781,36.023z M33.973,23.952c0.084,0,0.166,0.006,0.25,0.012l0.166,0.01   c0.383,0.024,0.734-0.202,0.879-0.556c2.27-5.509,7.58-9.067,13.531-9.067s11.264,3.56,13.533,9.068   c0.145,0.354,0.512,0.579,0.877,0.556l0.17-0.01c0.082-0.006,0.164-0.012,0.248-0.012c4.191,0,7.604,3.411,7.604,7.604   c0,4.193-3.412,7.604-7.604,7.604c-1.029,0-2.027-0.202-2.969-0.601c-0.354-0.148-0.762-0.059-1.018,0.226   c-2.576,2.847-6.273,3.072-10.842,3.072c-4.566,0-8.266-0.226-10.84-3.072c-0.176-0.193-0.42-0.297-0.668-0.297   c-0.119,0-0.238,0.023-0.352,0.071c-0.941,0.398-1.939,0.601-2.967,0.601c-4.195,0-7.607-3.411-7.607-7.604   S29.777,23.952,33.973,23.952z M21.674,36.565c0.055,0,0.109,0.004,0.262,0.014c0.375,0.024,0.736-0.201,0.883-0.556   c0.453-1.104,1.102-2.077,1.889-2.906c0.746,4.444,4.611,7.845,9.266,7.845c1.059,0,2.094-0.175,3.084-0.519   c2.371,2.32,5.395,2.977,8.812,3.152c-0.801,1.544-2.393,2.61-4.248,2.61c-0.652,0-1.285-0.128-1.883-0.38   c-0.354-0.149-0.762-0.06-1.018,0.226c-1.65,1.824-4.074,1.969-7.072,1.969c-3,0-5.426-0.145-7.076-1.97   c-0.176-0.192-0.418-0.296-0.668-0.296c-0.117,0-0.238,0.023-0.352,0.071c-0.594,0.253-1.227,0.38-1.879,0.38   c-2.658,0-4.822-2.162-4.822-4.82S19.016,36.565,21.674,36.565z"></path></g></svg>