<svg height='100px' width='100px'  fill="#FFFFFF" xmlns="http://www.w3.org/2000/svg" data-name="Layer 1" viewBox="0 0 100 100" x="0px" y="0px"><title>Artboard 44</title><path d="M50,98A48,48,0,1,0,2,50,48.05,48.05,0,0,0,50,98Zm0-88A40,40,0,1,1,10,50,40,40,0,0,1,50,10Z"></path><circle cx="50" cy="78" r="4"></circle><circle cx="78" cy="50" r="4"></circle><circle cx="22" cy="50" r="4"></circle><circle cx="30" cy="70" r="4"></circle><circle cx="70" cy="70" r="4"></circle><circle cx="70" cy="30" r="4"></circle><circle cx="30" cy="30" r="4"></circle><path d="M50,62a12,12,0,0,0,4-23.26V22a4,4,0,0,0-8,0V38.74A12,12,0,0,0,50,62Zm0-16a4,4,0,1,1-4,4A4,4,0,0,1,50,46Z"></path></svg>