<svg xmlns="http://www.w3.org/2000/svg" xmlns:xlink="http://www.w3.org/1999/xlink" width="100" height="100" viewBox="0 0 100 100"><rect width="100%" height="100%" fill="#ffffff"></rect><g transform="translate(50 50) scale(0.69 0.69) rotate(0) translate(-50 -50)" style="fill:#016a5c"><svg fill="#016a5c" xmlns:x="http://ns.adobe.com/Extensibility/1.0/" xmlns:i="http://ns.adobe.com/AdobeIllustrator/10.0/" xmlns:graph="http://ns.adobe.com/Graphs/1.0/" xmlns="http://www.w3.org/2000/svg" xmlns:xlink="http://www.w3.org/1999/xlink" xmlns:a="http://ns.adobe.com/AdobeSVGViewerExtensions/3.0/" version="1.1" x="0px" y="0px" viewBox="0 0 64 64" style="enable-background:new 0 0 64 64;" xml:space="preserve"><metadata><sfw xmlns="http://ns.adobe.com/SaveForWeb/1.0/"><slices></slices><sliceSourceBounds bottomLeftOrigin="true" height="400" width="400" x="0" y="-400"></sliceSourceBounds></sfw></metadata><g><g i:extraneous="self"><path d="M14,21c3.8598633,0,7-3.1401367,7-7s-3.1401367-7-7-7s-7,3.1401367-7,7S10.1401367,21,14,21z M14,9    c2.7568359,0,5,2.2431641,5,5s-2.2431641,5-5,5s-5-2.2431641-5-5S11.2431641,9,14,9z"></path><path d="M32,21c3.859375,0,7-3.1401367,7-7s-3.140625-7-7-7c-3.8598633,0-7,3.1401367-7,7S28.1401367,21,32,21z M32,9    c2.7568359,0,5,2.2431641,5,5s-2.2431641,5-5,5s-5-2.2431641-5-5S29.2431641,9,32,9z"></path><path d="M50,7c-3.859375,0-7,3.1401367-7,7s3.140625,7,7,7s7-3.1401367,7-7S53.859375,7,50,7z M50,19    c-2.7568359,0-5-2.2431641-5-5s2.2431641-5,5-5s5,2.2431641,5,5S52.7568359,19,50,19z"></path><path d="M14,39c3.8598633,0,7-3.140625,7-7c0-3.8598633-3.1401367-7-7-7s-7,3.1401367-7,7C7,35.859375,10.1401367,39,14,39z     M14,27c2.7568359,0,5,2.2431641,5,5s-2.2431641,5-5,5s-5-2.2431641-5-5S11.2431641,27,14,27z"></path><path d="M32,39c3.859375,0,7-3.140625,7-7c0-3.8598633-3.140625-7-7-7c-3.8598633,0-7,3.1401367-7,7    C25,35.859375,28.1401367,39,32,39z M32,27c2.7568359,0,5,2.2431641,5,5s-2.2431641,5-5,5s-5-2.2431641-5-5S29.2431641,27,32,27z"></path><path d="M50,25c-3.859375,0-7,3.1401367-7,7c0,3.859375,3.140625,7,7,7s7-3.140625,7-7C57,28.1401367,53.859375,25,50,25z M50,37    c-2.7568359,0-5-2.2431641-5-5s2.2431641-5,5-5s5,2.2431641,5,5S52.7568359,37,50,37z"></path><path d="M21,50c0-3.859375-3.1401367-7-7-7s-7,3.140625-7,7s3.1401367,7,7,7S21,53.859375,21,50z M14,55    c-2.7568359,0-5-2.2431641-5-5s2.2431641-5,5-5s5,2.2431641,5,5S16.7568359,55,14,55z"></path><path d="M32,57c3.859375,0,7-3.140625,7-7s-3.140625-7-7-7c-3.8598633,0-7,3.140625-7,7S28.1401367,57,32,57z M32,45    c2.7568359,0,5,2.2431641,5,5s-2.2431641,5-5,5s-5-2.2431641-5-5S29.2431641,45,32,45z"></path><path d="M50,43c-3.859375,0-7,3.140625-7,7s3.140625,7,7,7s7-3.140625,7-7S53.859375,43,50,43z M50,55    c-2.7568359,0-5-2.2431641-5-5s2.2431641-5,5-5s5,2.2431641,5,5S52.7568359,55,50,55z"></path></g></g></svg></g></svg>