<svg height='100px' width='100px'  fill="#027062" xmlns="http://www.w3.org/2000/svg" xmlns:xlink="http://www.w3.org/1999/xlink" version="1.1" x="0px" y="0px" viewBox="0 0 44 44" style="enable-background:new 0 0 44 44;" xml:space="preserve"><g><circle cx="25" cy="2" r="2"></circle><circle cx="18" cy="9" r="2"></circle><circle cx="27" cy="8" r="1"></circle><circle cx="22" cy="6" r="1"></circle><circle cx="22" cy="35" r="1"></circle><circle cx="29" cy="35" r="1"></circle><circle cx="16.5" cy="35.5" r="0.5"></circle><circle cx="18" cy="40" r="1"></circle><circle cx="21.5" cy="38.5" r="0.5"></circle><circle cx="25.5" cy="36.5" r="0.5"></circle><circle cx="29.5" cy="38.5" r="0.5"></circle><circle cx="14.5" cy="39.5" r="0.5"></circle><path d="M36.4,38.8L29.6,29c-1-1.5-1.6-3.3-1.6-5.1v-7.5c0-0.5,0.2-1,0.5-1.4H29c0.6,0,1-0.4,1-1s-0.4-1-1-1h-3.3   c0.2-0.3,0.3-0.6,0.3-1c0-1.1-0.9-2-2-2s-2,0.9-2,2c0,0.4,0.1,0.7,0.3,1H15c-0.6,0-1,0.4-1,1s0.4,1,1,1h11.2   c-0.2,0.4-0.2,0.9-0.2,1.4v7.5c0,2.2,0.7,4.4,2,6.3c-2.6-0.3-5.4,0-7.4,1c-1.5,0.7-3.7,1-5.8,0.8l1.2-1.8c1.3-1.8,2-4,2-6.3V18   c0-0.6-0.4-1-1-1s-1,0.4-1,1v5.9c0,1.8-0.6,3.6-1.6,5.1l-6.8,9.8C7.2,39.4,7,40,7,40.7c0,1.8,1.5,3.3,3.3,3.3h23.4   c1.8,0,3.3-1.5,3.3-3.3C37,40,36.8,39.4,36.4,38.8z M33.7,42H10.3C9.6,42,9,41.4,9,40.7c0-0.3,0.1-0.5,0.2-0.7l4.3-6.2   c0.8,0.1,1.6,0.2,2.5,0.2c2,0,3.9-0.4,5.4-1.1c2.2-1.1,5.6-1.2,8.2-0.3l5.1,7.4c0.1,0.2,0.2,0.5,0.2,0.7C35,41.4,34.4,42,33.7,42z"></path></g></svg>