<svg height='100px' width='100px'  fill="#006c5c" xmlns="http://www.w3.org/2000/svg" xmlns:xlink="http://www.w3.org/1999/xlink" version="1.1" x="0px" y="0px" viewBox="0 0 32 32" style="enable-background:new 0 0 32 32;" xml:space="preserve"><path d="M25.1113,5.7109c-0.8096-0.1304-1.6309,0.0942-2.251,0.6221c-0.0052,0.0045-0.0088,0.0103-0.014,0.0148  c-0.144-1.4063-1.3134-2.5109-2.7477-2.5109c-0.6919,0-1.3177,0.2653-1.8045,0.6883C18.1566,3.1122,16.9832,2,15.5444,2  c-1.4387,0-2.6115,1.1121-2.7491,2.525c-0.4867-0.4229-1.1123-0.6881-1.8041-0.6881c-1.5313,0-2.7769,1.2544-2.7769,2.7959v4.5671  C6.0633,11.8055,4.5713,13.7459,4.5713,16v2.4795C4.5713,24.832,9.6982,30,16,30s11.4287-5.168,11.4287-11.5205V8.5801  C27.4287,7.1587,26.4326,5.9253,25.1113,5.7109z M26.4287,18.4795C26.4287,24.2808,21.75,29,16,29  c-5.7505,0-10.4287-4.7192-10.4287-10.5205V16c0-1.7068,1.0707-3.1844,2.6431-3.7504v2.0058c0,0.2764,0.2236,0.5,0.5,0.5  s0.5-0.2236,0.5-0.5V6.6328c0-0.9902,0.7969-1.7959,1.7769-1.7959s1.7769,0.8057,1.7769,1.7959v5.0508c0,0.2764,0.2236,0.5,0.5,0.5  s0.5-0.2236,0.5-0.5V4.7959C13.7681,3.8057,14.5649,3,15.5444,3c0.98,0,1.7769,0.8057,1.7769,1.7959v6.8877  c0,0.2764,0.2236,0.5,0.5,0.5s0.5-0.2236,0.5-0.5V6.6328c0-0.9902,0.7969-1.7959,1.7773-1.7959  c0.9795,0,1.7764,0.8057,1.7764,1.7959v5.0513c0,0.2764,0.2236,0.5,0.5,0.5s0.5-0.2236,0.5-0.5V8.4692  c0-0.5313,0.2305-1.0322,0.6338-1.3745c0.4014-0.3423,0.9141-0.4824,1.4424-0.3965c0.8428,0.1367,1.4775,0.9458,1.4775,1.8818  V18.4795z"></path></svg>