<svg height='100px' width='100px'  fill="#016a5c" xmlns="http://www.w3.org/2000/svg" data-name="Layer 1" viewBox="0 0 64 64" x="0px" y="0px"><title>x</title><path d="M63.62,27.25a1.77,1.77,0,0,0-.95-.95L16.91,7.16a1.75,1.75,0,0,0-2.29.94L3.19,35.41a1.75,1.75,0,0,0,.94,2.29L49.9,56.84a1.79,1.79,0,0,0,.68.13,1.69,1.69,0,0,0,.66-.13,1.72,1.72,0,0,0,.95-.94L63.61,28.59A1.78,1.78,0,0,0,63.62,27.25ZM24.71,26,8.05,32.86l8.13-19.42ZM19.44,12l38,15.9L33.25,32.37Zm7.28,17L31,35.28a1.75,1.75,0,0,0,1.77.74l7.48-1.38L47.35,52,9.38,36.1Zm17,5,15-2.76L50.59,50.65Z"></path><path d="M23.41,56.85H2a1.75,1.75,0,0,1,0-3.5H23.41a1.75,1.75,0,1,1,0,3.5Z"></path><path d="M14.05,49.33H2a1.75,1.75,0,0,1,0-3.5H14.05a1.75,1.75,0,0,1,0,3.5Z"></path></svg>