<svg height='100px' width='100px'  fill="#016a5c" xmlns="http://www.w3.org/2000/svg" xmlns:xlink="http://www.w3.org/1999/xlink" version="1.1" x="0px" y="0px" viewBox="0 0 512 512" style="enable-background:new 0 0 512 512;" xml:space="preserve"><g><path d="M484.4,157v322.1c0,14.8-12,26.8-26.8,26.8H81.7c-14.8,0-26.8-12-26.8-26.8V31.8c0-14.8,12-26.8,26.8-26.8   h250.6c14.8,0,35.5,8.7,45.9,19l87.2,87.2C475.7,121.5,484.4,142.2,484.4,157z M448.6,183.9H332.3c-14.8,0-26.8-12-26.8-26.8V40.7   H90.6v429.5h357.9V183.9z M174.8,434.4h78.6v-29.6h-21l28.8-45c3.4-5.3,5-9.5,5.9-9.5h0.6c0.3,1.1,0.8,2,1.4,2.8   c1.1,2.2,2.8,3.9,4.8,6.7l29.9,45h-21.3v29.6h81.4v-29.6h-19l-53.7-76.3l54.5-78.9h18.7v-29.9h-78v29.9h20.7l-28.8,44.5   c-3.4,5.3-5.9,9.5-5.9,9.2h-0.6c-0.3-1.1-0.8-2-1.4-2.8c-1.1-2-2.5-3.9-4.8-6.4l-29.6-44.5h21.3v-29.9h-81.1v29.9h19l52.9,76.1   l-54.2,79.1h-19V434.4z M341.2,148.1h105.1c-1.7-4.8-4.2-9.5-6.2-11.5l-87.5-87.5c-2-2-6.7-4.5-11.5-6.2V148.1z"></path></g></svg>