<svg height='100px' width='100px'  fill="#016a5c" xmlns="http://www.w3.org/2000/svg" xmlns:xlink="http://www.w3.org/1999/xlink" version="1.1" x="0px" y="0px" viewBox="0 0 48 48" enable-background="new 0 0 48 48" xml:space="preserve"><g><path d="M47,0H1C0.4,0,0,0.4,0,1v36c0,0.6,0.4,1,1,1h16.4v8H13c-0.6,0-1,0.4-1,1c0,0.6,0.4,1,1,1h22c0.6,0,1-0.4,1-1   c0-0.6-0.4-1-1-1h-4.4v-8H47c0.6,0,1-0.4,1-1V1C48,0.4,47.6,0,47,0z M28.6,46h-9.3v-8h9.3V46z M46,36H2V2h44V36z"></path><path d="M24,29.4c10,0,18-9.4,18.3-9.8c0.3-0.4,0.3-0.9,0-1.3C42,18,34,8.6,24,8.6C14,8.6,6,18,5.7,18.4c-0.3,0.4-0.3,0.9,0,1.3   C6,20,14,29.4,24,29.4z M24,10.6c7.7,0,14.2,6.4,16.2,8.4c-1.9,2.1-8.5,8.4-16.2,8.4S9.8,21.1,7.8,19C9.8,16.9,16.3,10.6,24,10.6z"></path><path d="M24,25.5c3.6,0,6.5-2.9,6.5-6.5c0-3.6-2.9-6.5-6.5-6.5c-3.6,0-6.5,2.9-6.5,6.5C17.5,22.6,20.4,25.5,24,25.5z M24,14.5   c2.5,0,4.5,2,4.5,4.5c0,2.5-2,4.5-4.5,4.5c-2.5,0-4.5-2-4.5-4.5C19.5,16.5,21.5,14.5,24,14.5z"></path><path d="M24,22.3c1.8,0,3.3-1.5,3.3-3.3c0-0.6-0.4-1-1-1s-1,0.4-1,1c0,0.7-0.6,1.3-1.3,1.3c-0.6,0-1,0.4-1,1   C23,21.9,23.4,22.3,24,22.3z"></path></g></svg>