<svg height='100px' width='100px'  fill="#016a5c" xmlns="http://www.w3.org/2000/svg" viewBox="0 0 1200 1200" x="0px" y="0px"><title>Artboard 8</title><g data-name="Line Expanded (B)"><path d="M759,675a19,19,0,0,1,19,19,16,16,0,0,0,32,0,51.06,51.06,0,0,0-51-51h-1v-1a16,16,0,0,0-32,0v1h-2a51.06,51.06,0,0,0-51,51v13a51.06,51.06,0,0,0,51,51h2v51h-2a19,19,0,0,1-19-19,16,16,0,0,0-32,0,51.06,51.06,0,0,0,51,51h2v1a16,16,0,0,0,32,0v-1h1a51.06,51.06,0,0,0,51-51V777a51.06,51.06,0,0,0-51-51h-1V675Zm0,83a19,19,0,0,1,19,19v13a19,19,0,0,1-19,19h-1V758Zm-33-32h-2a19,19,0,0,1-19-19V694a19,19,0,0,1,19-19h2Zm26-157.71V300a16,16,0,0,0-16-16H300a16,16,0,0,0-16,16V833a16,16,0,0,0,16,16H604.88A173.79,173.79,0,0,0,742,916c95.94,0,174-78.06,174-174C916,649.41,843.31,573.49,752,568.29ZM316,817V316H720V569.39a172.57,172.57,0,0,0-46.2,12.54A16,16,0,0,0,659,572H600a16,16,0,0,0,0,32h36.15A173.81,173.81,0,0,0,585,817Zm426,67c-78.3,0-142-63.7-142-142s63.7-142,142-142,142,63.7,142,142S820.3,884,742,884ZM377,445H659a16,16,0,0,0,16-16V371a16,16,0,0,0-16-16H377a16,16,0,0,0-16,16v58A16,16,0,0,0,377,445Zm16-58H643v26H393ZM675,503a16,16,0,0,1-16,16H600a16,16,0,0,1,0-32h59A16,16,0,0,1,675,503Zm-223,0a16,16,0,0,1-16,16H377a16,16,0,0,1,0-32h59A16,16,0,0,1,452,503Zm111.5,0a16,16,0,0,1-16,16h-59a16,16,0,0,1,0-32h59A16,16,0,0,1,563.5,503ZM452,588a16,16,0,0,1-16,16H377a16,16,0,0,1,0-32h59A16,16,0,0,1,452,588Zm111.5,0a16,16,0,0,1-16,16h-59a16,16,0,0,1,0-32h59A16,16,0,0,1,563.5,588ZM452,673a16,16,0,0,1-16,16H377a16,16,0,0,1,0-32h59A16,16,0,0,1,452,673Zm111.5,0a16,16,0,0,1-16,16h-59a16,16,0,0,1,0-32h59A16,16,0,0,1,563.5,673ZM452,758a16,16,0,0,1-16,16H377a16,16,0,0,1,0-32h59A16,16,0,0,1,452,758Zm111.5,0a16,16,0,0,1-16,16h-59a16,16,0,0,1,0-32h59A16,16,0,0,1,563.5,758Z"></path></g></svg>