<svg height='100px' width='100px'  fill="#016a5c" xmlns:dc="http://purl.org/dc/elements/1.1/" xmlns:cc="http://creativecommons.org/ns#" xmlns:rdf="http://www.w3.org/1999/02/22-rdf-syntax-ns#" xmlns:svg="http://www.w3.org/2000/svg" xmlns="http://www.w3.org/2000/svg" xmlns:sodipodi="http://sodipodi.sourceforge.net/DTD/sodipodi-0.dtd" xmlns:inkscape="http://www.inkscape.org/namespaces/inkscape" viewBox="0 0 16.933333 16.933334" version="1.1" x="0px" y="0px"><g transform="translate(0,-280.06665)"><path style="color:#000000;font-variant-ligatures:normal;font-variant-position:normal;font-variant-caps:normal;font-variant-numeric:normal;font-variant-alternates:normal;font-feature-settings:normal;text-indent:0;text-decoration-line:none;text-decoration-style:solid;text-decoration-color:#000000;text-transform:none;direction:ltr;text-orientation:mixed;dominant-baseline:auto;baseline-shift:baseline;white-space:normal;shape-padding:0;isolation:auto;mix-blend-mode:normal;color-interpolation:sRGB;color-interpolation-filters:linearRGB;solid-color:#000000;solid-opacity:1;vector-effect:none;paint-order:fill markers stroke;color-rendering:auto;image-rendering:auto;shape-rendering:auto;enable-background:accumulate;" d="m 8.4667049,285.75519 c -1.3850409,0 -2.5135418,1.12847 -2.5135418,2.51354 0,1.38506 1.1285009,2.51354 2.5135418,2.51354 1.3850673,0 2.5135421,-1.12848 2.5135421,-2.51354 0,-1.38507 -1.1284748,-2.51354 -2.5135421,-2.51354 z" clip-rule="nonzero" display="inline" overflow="visible" visibility="visible" fill="#016a5c" fill-opacity="1" fill-rule="nonzero" stroke="none"></path><path style="color:#000000;font-variant-ligatures:normal;font-variant-position:normal;font-variant-caps:normal;font-variant-numeric:normal;font-variant-alternates:normal;font-feature-settings:normal;text-indent:0;text-decoration-line:none;text-decoration-style:solid;text-decoration-color:#000000;text-transform:none;direction:ltr;text-orientation:mixed;dominant-baseline:auto;baseline-shift:baseline;white-space:normal;shape-padding:0;isolation:auto;mix-blend-mode:normal;color-interpolation:sRGB;color-interpolation-filters:linearRGB;solid-color:#000000;solid-opacity:1;vector-effect:none;paint-order:fill markers stroke;color-rendering:auto;image-rendering:auto;shape-rendering:auto;enable-background:accumulate;" d="m 8.4667049,284.56456 c -2.0426099,0 -3.7041668,1.66156 -3.7041668,3.70417 0,1.76998 1.2483571,3.25173 2.9104168,3.61632 v 0.61701 H 7.5406632 c -0.1461294,3e-5 -0.2645569,0.11845 -0.2645833,0.26458 v 2.51355 c 0,0.65442 0.5362045,1.19062 1.190625,1.19062 0.6544469,0 1.190625,-0.5362 1.190625,-1.19062 v -2.51355 c -2.64e-5,-0.14613 -0.118454,-0.26455 -0.2645833,-0.26458 H 9.2604549 v -0.61701 c 1.6620861,-0.36459 2.9104171,-1.84634 2.9104171,-3.61632 0,-2.04261 -1.661531,-3.70417 -3.7041671,-3.70417 z m 0,0.52917 c 1.7566481,0 3.1750001,1.41835 3.1750001,3.175 0,1.75665 -1.418352,3.175 -3.1750001,3.175 -1.7566217,0 -3.1750001,-1.41835 -3.1750001,-3.175 0,-1.75665 1.4183784,-3.175 3.1750001,-3.175 z" clip-rule="nonzero" display="inline" overflow="visible" visibility="visible" fill="#016a5c" fill-opacity="1" fill-rule="nonzero" stroke="none"></path><path d="m 3.7114543,288.00414 a 0.26460977,0.26460977 0 1 0 0,0.52917 h 0.2573338 a 0.26460977,0.26460977 0 1 0 0,-0.52917 z" style="color:#000000;font-variant-ligatures:normal;font-variant-position:normal;font-variant-caps:normal;font-variant-numeric:normal;font-variant-alternates:normal;font-feature-settings:normal;text-indent:0;text-decoration-line:none;text-decoration-style:solid;text-decoration-color:#000000;text-transform:none;direction:ltr;text-orientation:mixed;dominant-baseline:auto;baseline-shift:baseline;white-space:normal;shape-padding:0;isolation:auto;mix-blend-mode:normal;color-interpolation:sRGB;color-interpolation-filters:linearRGB;solid-color:#000000;solid-opacity:1;vector-effect:none;color-rendering:auto;image-rendering:auto;shape-rendering:auto;enable-background:accumulate;" clip-rule="nonzero" display="inline" overflow="visible" visibility="visible" fill="#016a5c" fill-opacity="1" fill-rule="nonzero" stroke="none"></path><path d="m 4.3558471,285.62549 a 0.26460977,0.26460977 0 0 0 -0.1390121,0.49556 l 0.2227262,0.12817 a 0.26460977,0.26460977 0 1 0 0.2645834,-0.45787 l -0.2227263,-0.12866 a 0.26460977,0.26460977 0 0 0 -0.1255712,-0.0372 z" style="color:#000000;font-variant-ligatures:normal;font-variant-position:normal;font-variant-caps:normal;font-variant-numeric:normal;font-variant-alternates:normal;font-feature-settings:normal;text-indent:0;text-decoration-line:none;text-decoration-style:solid;text-decoration-color:#000000;text-transform:none;direction:ltr;text-orientation:mixed;dominant-baseline:auto;baseline-shift:baseline;white-space:normal;shape-padding:0;isolation:auto;mix-blend-mode:normal;color-interpolation:sRGB;color-interpolation-filters:linearRGB;solid-color:#000000;solid-opacity:1;vector-effect:none;color-rendering:auto;image-rendering:auto;shape-rendering:auto;enable-background:accumulate;" clip-rule="nonzero" display="inline" overflow="visible" visibility="visible" fill="#016a5c" fill-opacity="1" fill-rule="nonzero" stroke="none"></path><path d="m 4.5837592,290.25051 a 0.26460977,0.26460977 0 0 0 -0.144198,0.0372 L 4.216835,290.4164 a 0.26462586,0.26462586 0 1 0 0.2645833,0.45837 l 0.2227263,-0.12867 a 0.26460977,0.26460977 0 0 0 -0.1203854,-0.49559 z" style="color:#000000;font-variant-ligatures:normal;font-variant-position:normal;font-variant-caps:normal;font-variant-numeric:normal;font-variant-alternates:normal;font-feature-settings:normal;text-indent:0;text-decoration-line:none;text-decoration-style:solid;text-decoration-color:#000000;text-transform:none;direction:ltr;text-orientation:mixed;dominant-baseline:auto;baseline-shift:baseline;white-space:normal;shape-padding:0;isolation:auto;mix-blend-mode:normal;color-interpolation:sRGB;color-interpolation-filters:linearRGB;solid-color:#000000;solid-opacity:1;vector-effect:none;color-rendering:auto;image-rendering:auto;shape-rendering:auto;enable-background:accumulate;" clip-rule="nonzero" display="inline" overflow="visible" visibility="visible" fill="#016a5c" fill-opacity="1" fill-rule="nonzero" stroke="none"></path><path d="m 12.964622,288.00414 a 0.26460977,0.26460977 0 1 0 0,0.52917 h 0.25736 a 0.26460977,0.26460977 0 1 0 0,-0.52917 z" style="color:#000000;font-variant-ligatures:normal;font-variant-position:normal;font-variant-caps:normal;font-variant-numeric:normal;font-variant-alternates:normal;font-feature-settings:normal;text-indent:0;text-decoration-line:none;text-decoration-style:solid;text-decoration-color:#000000;text-transform:none;direction:ltr;text-orientation:mixed;dominant-baseline:auto;baseline-shift:baseline;white-space:normal;shape-padding:0;isolation:auto;mix-blend-mode:normal;color-interpolation:sRGB;color-interpolation-filters:linearRGB;solid-color:#000000;solid-opacity:1;vector-effect:none;color-rendering:auto;image-rendering:auto;shape-rendering:auto;enable-background:accumulate;" clip-rule="nonzero" display="inline" overflow="visible" visibility="visible" fill="#016a5c" fill-opacity="1" fill-rule="nonzero" stroke="none"></path><path d="m 12.59566,285.62549 a 0.26460977,0.26460977 0 0 0 -0.143669,0.0372 l -0.222726,0.12866 a 0.26460977,0.26460977 0 1 0 0.264584,0.45787 l 0.222223,-0.12817 a 0.26460977,0.26460977 0 0 0 -0.120412,-0.49556 z" style="color:#000000;font-variant-ligatures:normal;font-variant-position:normal;font-variant-caps:normal;font-variant-numeric:normal;font-variant-alternates:normal;font-feature-settings:normal;text-indent:0;text-decoration-line:none;text-decoration-style:solid;text-decoration-color:#000000;text-transform:none;direction:ltr;text-orientation:mixed;dominant-baseline:auto;baseline-shift:baseline;white-space:normal;shape-padding:0;isolation:auto;mix-blend-mode:normal;color-interpolation:sRGB;color-interpolation-filters:linearRGB;solid-color:#000000;solid-opacity:1;vector-effect:none;color-rendering:auto;image-rendering:auto;shape-rendering:auto;enable-background:accumulate;" clip-rule="nonzero" display="inline" overflow="visible" visibility="visible" fill="#016a5c" fill-opacity="1" fill-rule="nonzero" stroke="none"></path><path d="m 12.368277,290.25051 a 0.26460977,0.26460977 0 0 0 -0.139012,0.49559 l 0.222726,0.12867 a 0.26460977,0.26460977 0 1 0 0.264081,-0.45837 l -0.222223,-0.12866 a 0.26460977,0.26460977 0 0 0 -0.125572,-0.0372 z" style="color:#000000;font-variant-ligatures:normal;font-variant-position:normal;font-variant-caps:normal;font-variant-numeric:normal;font-variant-alternates:normal;font-feature-settings:normal;text-indent:0;text-decoration-line:none;text-decoration-style:solid;text-decoration-color:#000000;text-transform:none;direction:ltr;text-orientation:mixed;dominant-baseline:auto;baseline-shift:baseline;white-space:normal;shape-padding:0;isolation:auto;mix-blend-mode:normal;color-interpolation:sRGB;color-interpolation-filters:linearRGB;solid-color:#000000;solid-opacity:1;vector-effect:none;color-rendering:auto;image-rendering:auto;shape-rendering:auto;enable-background:accumulate;" clip-rule="nonzero" display="inline" overflow="visible" visibility="visible" fill="#016a5c" fill-opacity="1" fill-rule="nonzero" stroke="none"></path><path d="m 1.7198297,280.59581 c -0.6544204,0 -1.19062502,0.5362 -1.19062502,1.19063 v 1.19062 c 2.646e-5,0.14613 0.11845396,0.26456 0.26458334,0.26458 H 1.8521214 v -0.79375 c -0.00265,-0.14591 0.1145381,-0.26593 0.2604558,-0.2682 0.1491456,-0.003 0.2707482,0.11903 0.2687109,0.2682 0,3.74828 0,7.49652 0,11.2448 0,0.65442 0.5362046,1.19062 1.190625,1.19062 h 3.0427084 v -0.52917 H 3.5719131 c -0.3684323,0 -0.6614584,-0.293 -0.6614584,-0.66145 v -11.90625 c 0,-0.65443 -0.5361781,-1.19063 -1.190625,-1.19063 z" style="color:#000000;font-variant-ligatures:normal;font-variant-position:normal;font-variant-caps:normal;font-variant-numeric:normal;font-variant-alternates:normal;font-feature-settings:normal;text-indent:0;text-decoration-line:none;text-decoration-style:solid;text-decoration-color:#000000;text-transform:none;direction:ltr;text-orientation:mixed;dominant-baseline:auto;baseline-shift:baseline;white-space:normal;shape-padding:0;isolation:auto;mix-blend-mode:normal;color-interpolation:sRGB;color-interpolation-filters:linearRGB;solid-color:#000000;solid-opacity:1;vector-effect:none;paint-order:fill markers stroke;color-rendering:auto;image-rendering:auto;shape-rendering:auto;enable-background:accumulate;" clip-rule="nonzero" display="inline" overflow="visible" visibility="visible" fill="#016a5c" fill-opacity="1" fill-rule="nonzero" stroke="none"></path><path d="m 1.8521214,280.59581 v 0.52917 H 13.361497 c 0.368458,0 0.661458,0.293 0.661458,0.66146 v 11.90625 c 0,0.65442 0.536205,1.19062 1.190625,1.19062 0.654447,0 1.190625,-0.5362 1.190625,-1.19062 v -1.19063 c -2.6e-5,-0.14613 -0.118454,-0.26456 -0.264583,-0.26458 h -1.058334 v 0.79375 a 0.2646098,0.2646098 0 1 1 -0.529166,0 v -0.79375 -0.79375 -9.65729 c 0,-0.65443 -0.536178,-1.19063 -1.190625,-1.19063 z" style="color:#000000;font-variant-ligatures:normal;font-variant-position:normal;font-variant-caps:normal;font-variant-numeric:normal;font-variant-alternates:normal;font-feature-settings:normal;text-indent:0;text-decoration-line:none;text-decoration-style:solid;text-decoration-color:#000000;text-transform:none;direction:ltr;text-orientation:mixed;dominant-baseline:auto;baseline-shift:baseline;white-space:normal;shape-padding:0;isolation:auto;mix-blend-mode:normal;color-interpolation:sRGB;color-interpolation-filters:linearRGB;solid-color:#000000;solid-opacity:1;vector-effect:none;paint-order:fill markers stroke;color-rendering:auto;image-rendering:auto;shape-rendering:auto;enable-background:accumulate;" clip-rule="nonzero" display="inline" overflow="visible" visibility="visible" fill="#016a5c" fill-opacity="1" fill-rule="nonzero" stroke="none"></path><path d="m 10.318762,294.35414 v 0.52917 h 4.91961 v -0.52917 z" style="color:#000000;font-variant-ligatures:normal;font-variant-position:normal;font-variant-caps:normal;font-variant-numeric:normal;font-variant-alternates:normal;font-feature-settings:normal;text-indent:0;text-decoration-line:none;text-decoration-style:solid;text-decoration-color:#000000;text-transform:none;direction:ltr;text-orientation:mixed;dominant-baseline:auto;baseline-shift:baseline;white-space:normal;shape-padding:0;isolation:auto;mix-blend-mode:normal;color-interpolation:sRGB;color-interpolation-filters:linearRGB;solid-color:#000000;solid-opacity:1;vector-effect:none;color-rendering:auto;image-rendering:auto;shape-rendering:auto;enable-background:accumulate;" clip-rule="nonzero" display="inline" overflow="visible" visibility="visible" fill="#016a5c" fill-opacity="1" fill-rule="nonzero" stroke="none"></path><path d="m 6.6146215,282.18331 v 0.52917 h 3.7041665 v -0.52917 z" style="color:#000000;font-variant-ligatures:normal;font-variant-position:normal;font-variant-caps:normal;font-variant-numeric:normal;font-variant-alternates:normal;font-feature-settings:normal;text-indent:0;text-decoration-line:none;text-decoration-style:solid;text-decoration-color:#000000;text-transform:none;direction:ltr;text-orientation:mixed;dominant-baseline:auto;baseline-shift:baseline;white-space:normal;shape-padding:0;isolation:auto;mix-blend-mode:normal;color-interpolation:sRGB;color-interpolation-filters:linearRGB;solid-color:#000000;solid-opacity:1;vector-effect:none;color-rendering:auto;image-rendering:auto;shape-rendering:auto;enable-background:accumulate;" clip-rule="nonzero" display="inline" overflow="visible" visibility="visible" fill="#016a5c" fill-opacity="1" fill-rule="nonzero" stroke="none"></path></g></svg>