<svg height='100px' width='100px'  fill="#016a5c" xmlns="http://www.w3.org/2000/svg" data-name="Layer 1" viewBox="0 0 100 100" x="0px" y="0px"><title>travel</title><path d="M93.00018,29.5H88.44574L86.32343,13.24121a2.0006,2.0006,0,0,0-2.24219-1.72461L6.74139,21.6167a2.00078,2.00078,0,0,0-1.72461,2.24219L12.1369,78.38867a1.98976,1.98976,0,0,0,.86328,1.38989V86.5a2.0001,2.0001,0,0,0,2,2h78a2.0001,2.0001,0,0,0,2-2v-55A2.0001,2.0001,0,0,0,93.00018,29.5Zm-80,2V54.10437L9.24237,25.32422l73.37354-9.582L84.41187,29.5H15.00018A2.0001,2.0001,0,0,0,13.00018,31.5Zm25.5,13.02979a6,6,0,1,1-6-6A6,6,0,0,1,38.50018,44.52979ZM91.00018,84.5h-74V77.03369L35.195,58.83936l18.64551,18.645a1.99979,1.99979,0,0,0,2.82812-2.82813L51.38641,69.374,75.73065,45.02979,91.00018,60.30786Z"></path></svg>