<svg height='100px' width='100px'  fill="#016a5c" xmlns="http://www.w3.org/2000/svg" xmlns:xlink="http://www.w3.org/1999/xlink" version="1.0" x="0px" y="0px" viewBox="0 0 100 100" enable-background="new 0 0 100 100" xml:space="preserve"><g><path fill="#016a5c" d="M76.695,13.875h-53.39c-5.2,0-9.43,4.23-9.43,9.43v53.391c0,5.199,4.23,9.43,9.43,9.43h53.39   c5.199,0,9.43-4.23,9.43-9.43V23.304C86.125,18.104,81.895,13.875,76.695,13.875z M84.125,76.695c0,4.097-3.333,7.43-7.43,7.43   h-53.39c-4.097,0-7.43-3.333-7.43-7.43V23.304c0-4.097,3.333-7.43,7.43-7.43h53.39c4.097,0,7.43,3.333,7.43,7.43V76.695z"></path><path fill="#016a5c" d="M70.178,26.322c-1.93,0-3.5,1.57-3.5,3.5c0,0.601,0.166,1.158,0.434,1.652L31.475,67.111   c-0.495-0.268-1.052-0.434-1.652-0.434c-1.93,0-3.5,1.57-3.5,3.5s1.57,3.5,3.5,3.5s3.5-1.57,3.5-3.5   c0-0.601-0.166-1.158-0.434-1.652l35.637-35.637c0.494,0.268,1.052,0.434,1.652,0.434c1.93,0,3.5-1.57,3.5-3.5   S72.107,26.322,70.178,26.322z M29.822,71.678c-0.827,0-1.5-0.673-1.5-1.5s0.673-1.5,1.5-1.5s1.5,0.673,1.5,1.5   S30.649,71.678,29.822,71.678z M70.178,31.322c-0.827,0-1.5-0.673-1.5-1.5s0.673-1.5,1.5-1.5s1.5,0.673,1.5,1.5   S71.005,31.322,70.178,31.322z"></path></g></svg>