<svg height='100px' width='100px'  fill="#016a5c" xmlns="http://www.w3.org/2000/svg" data-name="Layer 1" viewBox="0 0 100.01 100" x="0px" y="0px"><title>Ecology_icons</title><path d="M50,48.91a9.7,9.7,0,0,0-9.69,9.69v10a9.69,9.69,0,1,0,19.37,0v-10A9.7,9.7,0,0,0,50,48.91Zm3.58,19.64a3.58,3.58,0,1,1-7.17,0v-10a3.58,3.58,0,1,1,7.17,0v10Z"></path><polygon points="49.95 96.73 49.97 96.73 49.96 96.73 49.95 96.73"></polygon><path d="M69.59,36.4V21.72c0-10.17-8.8-18.44-19.62-18.44S30.35,11.54,30.35,21.72V36.44A33.21,33.21,0,1,0,69.59,36.4ZM36.45,21.72c0-6.81,6.06-12.34,13.52-12.34s13.52,5.54,13.52,12.34V32.86a33.2,33.2,0,0,0-27,0V21.72ZM50,90.32A27.11,27.11,0,1,1,77.12,63.21,27.15,27.15,0,0,1,50,90.32Z"></path></svg>