<svg height='100px' width='100px'  fill="#016a5c" xmlns="http://www.w3.org/2000/svg" xmlns:xlink="http://www.w3.org/1999/xlink" version="1.1" x="0px" y="0px" viewBox="0 0 64 64" enable-background="new 0 0 64 64" xml:space="preserve"><g><path d="M35.72,20.04c1.11,0,2,0.89,2,2c0,1.1-0.89,2-2,2c-1.1,0-2-0.9-2-2C33.72,20.93,34.62,20.04,35.72,20.04z"></path><rect x="54" y="27.52" width="4" height="4"></rect><path d="M58,35.52V46c0,3.31-2.69,6-6,6H12c-3.31,0-6-2.69-6-6V18c0-3.31,2.69-6,6-6h40c3.31,0,6,2.69,6,6v5.52h-4V18   c0-1.1-0.9-2-2-2H12c-1.1,0-2,0.9-2,2v22.65L27.08,30.63l7.229,7.75L44.66,32.3L54,42.31v-6.79H58z M53.35,47.48l-9.43-10.11   l-6.82,4L43.29,48H52C52.5,48,52.98,47.81,53.35,47.48z M37.82,48L26.34,35.7L10,45.29V46c0,1.1,0.9,2,2,2H37.82z"></path></g></svg>