<svg height='100px' width='100px'  fill="#016a5c" xmlns="http://www.w3.org/2000/svg" viewBox="0 0 96 96" x="0px" y="0px"><title>Artboard 10</title><path d="M88,44a8.0091,8.0091,0,0,0-8-8,7.9065,7.9065,0,0,0-1.18.1194L55.4431,18.8767A7.9264,7.9264,0,0,0,56,16a8,8,0,0,0-16,0,7.9264,7.9264,0,0,0,.5569,2.8767L17.18,36.1194A7.9065,7.9065,0,0,0,16,36a7.9921,7.9921,0,0,0-1.446,15.8538l8.7851,23.73A7.985,7.985,0,1,0,37.7161,82H58.2839a7.9841,7.9841,0,1,0,14.377-6.4163l8.7851-23.73A8.0021,8.0021,0,0,0,88,44Zm-4,0a4,4,0,1,1-4-4A4.004,4.004,0,0,1,84,44ZM48,12a4,4,0,1,1-4,4A4.004,4.004,0,0,1,48,12ZM42.9048,22.1155a7.83,7.83,0,0,0,10.19,0L74.7014,38.0522a7.9319,7.9319,0,0,0,2.61,13.45l-7.8852,21.3A7.9069,7.9069,0,0,0,66,72a7.993,7.993,0,0,0-7.7161,6H37.7161A7.993,7.993,0,0,0,30,72a7.9069,7.9069,0,0,0-3.4263.8013l-7.8852-21.3a7.9319,7.9319,0,0,0,2.61-13.4495ZM12,44a4,4,0,1,1,4,4A4.004,4.004,0,0,1,12,44ZM30,84a4,4,0,1,1,4-4A4.004,4.004,0,0,1,30,84Zm36,0a4,4,0,1,1,4-4A4.004,4.004,0,0,1,66,84Z"></path></svg>