<svg height='100px' width='100px'  fill="#006c5c" xmlns="http://www.w3.org/2000/svg" viewBox="0 0 64 64" x="0px" y="0px"><g><path d="M51.383,26.076a1,1,0,0,0-1.09.217l-24,24A1,1,0,0,0,27,52H51a1,1,0,0,0,1-1V27A1,1,0,0,0,51.383,26.076ZM50,50H29.414L50,29.414Z"></path><path d="M61.383,2.076a1,1,0,0,0-1.09.217L22,40.586V3a1,1,0,0,0-1-1H3A1,1,0,0,0,2,3V61a1,1,0,0,0,1,1H61a1,1,0,0,0,1-1V3A1,1,0,0,0,61.383,2.076ZM20,10H15a1,1,0,0,0,0,2h5v4H15a1,1,0,0,0,0,2h5v4H15a1,1,0,0,0,0,2h5v4H15a1,1,0,0,0,0,2h5v4H15a1,1,0,0,0,0,2h5v4H15a1,1,0,0,0,0,2h5v4H15a1,1,0,0,0,0,2h5v4H15a1,1,0,0,0,0,2h5v6H10V4H20ZM4,60V4H8V60Zm56,0H22V43.414l2-2,2.293,2.293a1,1,0,0,0,1.414-1.414L25.414,40,32,33.414l2.293,2.293a1,1,0,0,0,1.414-1.414L33.414,32,40,25.414l2.293,2.293a1,1,0,0,0,1.414-1.414L41.414,24,48,17.414l2.293,2.293a1,1,0,0,0,1.414-1.414L49.414,16,60,5.414Z"></path></g></svg>