<svg height='100px' width='100px'  fill="#016a5c" xmlns="http://www.w3.org/2000/svg" xmlns:xlink="http://www.w3.org/1999/xlink" version="1.1" x="0px" y="0px" viewBox="0 0 66 66" style="enable-background:new 0 0 66 66;" xml:space="preserve"><path d="M55,49.25H22c-0.11,0-0.22,0.03-0.32,0.07c-0.01,0-0.01,0-0.02,0l-6,3c-0.25,0.13-0.41,0.39-0.41,0.67s0.16,0.54,0.41,0.67  l6,3c0.01,0,0.01,0,0.02,0c0.1,0.05,0.2,0.07,0.31,0.07h33c2.07,0,3.75-1.68,3.75-3.75S57.07,49.25,55,49.25z M21.25,51.21v3.57  L17.68,53L21.25,51.21z M22.75,50.75h28.5v4.5h-28.5V50.75z M55,55.25h-2.25v-4.5H55c1.24,0,2.25,1.01,2.25,2.25  S56.24,55.25,55,55.25z"></path><path d="M21,35.75h10.93c0.3,0,0.58-0.18,0.69-0.46s0.05-0.6-0.16-0.82L21.53,23.54c-0.21-0.21-0.54-0.28-0.82-0.16  c-0.28,0.12-0.46,0.39-0.46,0.69V35C20.25,35.41,20.59,35.75,21,35.75z M21.75,25.88l8.37,8.37h-8.37V25.88z"></path><path d="M64,19.25h-5.25V6c0-0.41-0.34-0.75-0.75-0.75H48c-0.41,0-0.75,0.34-0.75,0.75v13.25H24.31l-7.78-7.78  c-0.21-0.21-0.54-0.28-0.82-0.16c-0.28,0.12-0.46,0.39-0.46,0.69v7.25h-4.5V18c0-2.62-2.13-4.75-4.75-4.75S1.25,15.38,1.25,18v38  c0,0.07,0.02,0.13,0.04,0.19c0.2,2.54,2.31,4.56,4.9,4.56H64c0.41,0,0.75-0.34,0.75-0.75V20C64.75,19.59,64.41,19.25,64,19.25z   M48.75,6.75h8.5v2.5H56c-0.41,0-0.75,0.34-0.75,0.75s0.34,0.75,0.75,0.75h1.25v2.5H56c-0.41,0-0.75,0.34-0.75,0.75  s0.34,0.75,0.75,0.75h1.25v2.5H56c-0.41,0-0.75,0.34-0.75,0.75s0.34,0.75,0.75,0.75h1.25v2.5H56c-0.41,0-0.75,0.34-0.75,0.75  s0.34,0.75,0.75,0.75h1.25v2.5H56c-0.41,0-0.75,0.34-0.75,0.75s0.34,0.75,0.75,0.75h1.25v2.5H56c-0.41,0-0.75,0.34-0.75,0.75  s0.34,0.75,0.75,0.75h1.25v2.5H56c-0.41,0-0.75,0.34-0.75,0.75s0.34,0.75,0.75,0.75h1.25v2.5H56c-0.41,0-0.75,0.34-0.75,0.75  s0.34,0.75,0.75,0.75h1.25v2.5H56c-0.41,0-0.75,0.34-0.75,0.75s0.34,0.75,0.75,0.75h1.25v2.5h-8.5V6.75z M16.75,13.81l25.44,25.44  H16.75V13.81z M2.75,18c0-1.79,1.46-3.25,3.25-3.25S9.25,16.21,9.25,18v34.54C8.4,51.74,7.26,51.25,6,51.25s-2.4,0.49-3.25,1.29V18z   M63.25,59.25H6.19c-1.86,0-3.38-1.49-3.43-3.34c0.05-1.75,1.48-3.16,3.24-3.16c1.79,0,3.25,1.46,3.25,3.25  c0,0.41,0.34,0.75,0.75,0.75s0.75-0.34,0.75-0.75V20.75h4.5V40c0,0.41,0.34,0.75,0.75,0.75h28c0.3,0,0.58-0.18,0.69-0.46  s0.05-0.6-0.16-0.82L25.81,20.75h21.44V46c0,0.41,0.34,0.75,0.75,0.75h10c0.41,0,0.75-0.34,0.75-0.75V20.75h4.5V59.25z"></path></svg>