<?xml version="1.0" encoding="UTF-8"?>
<svg width="1200pt" height="1200pt" version="1.1" viewBox="0 0 1200 1200" xmlns="http://www.w3.org/2000/svg">
 <path d="m1050 775v-100.15c0-27.488-22.387-49.852-50-49.852-27.809 0-50 22.32-50 49.852v100.15h-100.15c-27.488 0-49.852 22.387-49.852 50 0 27.809 22.32 50 49.852 50h100.15v100.15c0 27.488 22.387 49.852 50 49.852 27.809 0 50-22.32 50-49.852v-100.15h100.15c27.488 0 49.852-22.387 49.852-50 0-27.809-22.32-50-49.852-50zm-1050-550c0-27.613 22.375-50 50.035-50h1099.9c27.633 0 50.035 22.191 50.035 50 0 27.613-22.375 50-50.035 50h-1099.9c-27.633 0-50.035-22.191-50.035-50zm0 300c0-27.613 22.375-50 50.035-50h1099.9c27.633 0 50.035 22.191 50.035 50 0 27.613-22.375 50-50.035 50h-1099.9c-27.633 0-50.035-22.191-50.035-50zm0 300c0-27.613 22.426-50 50.125-50h499.75c27.684 0 50.125 22.191 50.125 50 0 27.613-22.426 50-50.125 50h-499.75c-27.684 0-50.125-22.191-50.125-50z" fill="#339cb1" fill-rule="evenodd"/>
</svg>
