<svg height='100px' width='100px'  fill="#016a5c" xmlns="http://www.w3.org/2000/svg" data-name="Layer 1" viewBox="0 0 128 128" x="0px" y="0px"><title>miscellaneous 68 final</title><path d="M36.03046,60.08374a9.00007,9.00007,0,0,0-.502-17.98584q-.255,0-.5119.0144a9.00007,9.00007,0,0,0,.5025,17.98584C35.68829,60.09814,35.85938,60.09338,36.03046,60.08374Zm-5.499-8.704A5,5,0,0,1,35.24182,46.106c.0957-.00543.19147-.00806.28619-.00812a5.0001,5.0001,0,0,1,.27722,9.99225c-.09576.00537-.19147.00806-.28619.00806A5,5,0,0,1,30.53143,51.3797Z"></path><path d="M48.57489,69.39172a7.0024,7.0024,0,0,0-6.986-6.60571c-.132,0-.26471.00372-.39746.01123a7,7,0,0,0,.39191,13.989c.13147,0,.26434-.00366.39722-.01117A7.0079,7.0079,0,0,0,48.57489,69.39172Zm-6.81982,3.38965c-.0575.00323-.11487.00482-.17169.00482a3,3,0,0,1-.16638-5.9953c.05743-.00323.11487-.00488.17169-.00488a3.00007,3.00007,0,0,1,.16638,5.99536Z"></path><path d="M66.82843,1.17157a4,4,0,0,0-5.65686,0l-60,60a4.00005,4.00005,0,0,0,0,5.65686l60,60a4,4,0,0,0,5.65686,0l60-60a3.99994,3.99994,0,0,0,0-5.65686ZM64,124,4,64,64,4l60,60Z"></path><path d="M63.05,60.42l-.81-.25A4.30064,4.30064,0,0,0,61.07,60a4.002,4.002,0,0,0-3.77,2.67L56.23,65.7a3.98941,3.98941,0,0,0,.2,3.14.20932.20932,0,0,0,.04.06L43.06,83.46a3.9932,3.9932,0,0,0,1.73,6.52l6.29,2.01a4.24067,4.24067,0,0,0,1.22.18,4.01709,4.01709,0,0,0,2.22-.67l1.26-.85a4.01105,4.01105,0,0,0,2.79,3.72l20.22,6.44A3.8268,3.8268,0,0,0,80,101a4.01577,4.01577,0,0,0,4-4.08s-.3-18.63-.32-19a3.96831,3.96831,0,0,0,3.02-2.59l1.07-3.03a3.98955,3.98955,0,0,0-.2-3.14,3.93839,3.93839,0,0,0-2.41-2.02l-.54-.17,1.52-1.93a3.99757,3.99757,0,0,0-2.03-6.32l-2.19885-.63184L87.8045,38.8208a4.41145,4.41145,0,0,0-2.78442-5.49915l-3.13617-1.08148A4.38421,4.38421,0,0,0,80.45142,32h-.00031a4.396,4.396,0,0,0-4.21082,3.11029L70.23785,54.734,68.24,54.16A3.82174,3.82174,0,0,0,67.13,54a4.00243,4.00243,0,0,0-3.99,3.87ZM59.78,90.56l2.54-9.1L52.3,88.17l-6.3-2,13.38165-14.488a2,2,0,0,1,2.07886-.54779l16.77661,5.36969a1.99994,1.99994,0,0,1,1.39539,1.86707L80,97ZM80.05957,36.29913A.41507.41507,0,0,1,80.45142,36a.3934.3934,0,0,1,.12854.02167L83.71582,37.103a.43952.43952,0,0,1,.26361.54779L78.0661,56.98334l-3.98328-1.14453ZM67.13,58,83,62.57l-2.49,3.16L67.02,61.62ZM84,70.96,82.93,74,60.01,67.04H60L61.07,64Z"></path></svg>