<svg height='100px' width='100px'  fill="#006b5c" xmlns="http://www.w3.org/2000/svg" xmlns:xlink="http://www.w3.org/1999/xlink" version="1.1" x="0px" y="0px" viewBox="0 0 32 32" style="enable-background:new 0 0 32 32;" xml:space="preserve"><g><path d="M3.73021,11.5224h2.04564l1.45645,19.49063C7.27396,31.56979,7.7375,32,8.29583,32h15.40833   c0.55833,0,1.02188-0.43021,1.06354-0.98698l1.45645-19.49063h2.04564c0.58958,0,1.06667-0.4776,1.06667-1.06667V5.16198   c0-0.58906-0.47708-1.06667-1.06667-1.06667h-5.84167V2.16146C22.42813,0.96979,21.45833,0,20.26563,0h-8.53125   c-1.19271,0-2.1625,0.96979-2.1625,2.16146v1.93385H3.73021c-0.58958,0-1.06667,0.4776-1.06667,1.06667v5.29375   C2.66354,11.04479,3.14063,11.5224,3.73021,11.5224z M22.71458,29.86667H9.28542L7.91458,11.5224h16.17083L22.71458,29.86667z    M11.73438,2.13333l8.56042,0.02812v1.93385h-8.57917L11.73438,2.13333z M4.79688,6.22865h22.40625v3.16042H4.79688V6.22865z"></path><path d="M11.81563,27.74948c0.58958,0,1.06667-0.4776,1.06667-1.06667V14.70625c0-0.58906-0.47708-1.06667-1.06667-1.06667   s-1.06667,0.4776-1.06667,1.06667v11.97656C10.74896,27.27188,11.22604,27.74948,11.81563,27.74948z"></path><path d="M16,27.74948c0.58958,0,1.06667-0.4776,1.06667-1.06667V14.70625c0-0.58906-0.47709-1.06667-1.06667-1.06667   c-0.58958,0-1.06667,0.4776-1.06667,1.06667v11.97656C14.93333,27.27188,15.41042,27.74948,16,27.74948z"></path><path d="M20.18438,27.74948c0.58958,0,1.06667-0.4776,1.06667-1.06667V14.70625c0-0.58906-0.47708-1.06667-1.06667-1.06667   c-0.58958,0-1.06667,0.4776-1.06667,1.06667v11.97656C19.11771,27.27188,19.59479,27.74948,20.18438,27.74948z"></path></g></svg>