<svg height='100px' width='100px'  fill="#016a5c" xmlns:dc="http://purl.org/dc/elements/1.1/" xmlns:cc="http://creativecommons.org/ns#" xmlns:rdf="http://www.w3.org/1999/02/22-rdf-syntax-ns#" xmlns:svg="http://www.w3.org/2000/svg" xmlns="http://www.w3.org/2000/svg" xmlns:sodipodi="http://sodipodi.sourceforge.net/DTD/sodipodi-0.dtd" xmlns:inkscape="http://www.inkscape.org/namespaces/inkscape" version="1.1" x="0px" y="0px" viewBox="0 0 100 100"><g transform="translate(0,-952.36218)"><path style="text-indent:0;text-transform:none;direction:ltr;block-progression:tb;baseline-shift:baseline;color:#000000;enable-background:accumulate;" d="M 16.8125,6 C 15.829332,6.0926607 14.995742,7.0124846 15,8 l 0,84 c 1.05e-4,1.047169 0.952831,1.999895 2,2 l 66,0 c 1.047169,-1.05e-4 1.999895,-0.952831 2,-2 L 85,8 C 84.999895,6.9528311 84.047169,6.0001047 83,6 60.941463,5.9999999 38.857799,6 16.8125,6 z M 19,10 l 62,0 0,80 -62,0 z m 13,4 c -3.842305,0 -7,3.15769 -7,7 0,3.8423 3.157695,7 7,7 3.842304,0 7,-3.1577 7,-7 0,-3.84231 -3.157696,-7 -7,-7 z m 0,4 c 1.680544,0 3,1.31945 3,3 0,1.68054 -1.319456,3 -3,3 -1.680545,0 -3,-1.31946 -3,-3 0,-1.68055 1.319455,-3 3,-3 z m 12.8125,1 c -1.047341,0.04888 -1.955743,1.046438 -1.906649,2.093769 C 42.954944,22.1411 43.952679,23.049303 45,23 l 28,0 c 1.056621,0.01494 2.02847,-0.943274 2.02847,-2 0,-1.056726 -0.971849,-2.014936 -2.02847,-2 -9.390897,-1e-6 -18.810225,0 -28.1875,0 z M 32,33 c -3.842305,0 -7,3.15769 -7,7 0,3.8423 3.157695,7 7,7 3.842304,0 7,-3.1577 7,-7 0,-3.84231 -3.157696,-7 -7,-7 z m 0,4 c 1.680544,0 3,1.31945 3,3 0,1.68054 -1.319456,3 -3,3 -1.680545,0 -3,-1.31946 -3,-3 0,-1.68055 1.319455,-3 3,-3 z m 12.8125,1 c -1.047341,0.04888 -1.955743,1.046438 -1.906649,2.093769 C 42.954944,41.1411 43.952679,42.049303 45,42 l 28,0 c 1.056621,0.01494 2.02847,-0.943274 2.02847,-2 0,-1.056726 -0.971849,-2.014936 -2.02847,-2 -9.390897,-10e-7 -18.810225,0 -28.1875,0 z M 32,53 c -3.842305,0 -7,3.1577 -7,7 0,3.8423 3.157695,7 7,7 3.842304,0 7,-3.1577 7,-7 0,-3.8423 -3.157696,-7 -7,-7 z m 0,4 c 1.680544,0 3,1.3195 3,3 0,1.6805 -1.319456,3 -3,3 -1.680545,0 -3,-1.3195 -3,-3 0,-1.6805 1.319455,-3 3,-3 z m 12.8125,1 c -1.047341,0.04888 -1.955743,1.046438 -1.906649,2.093769 C 42.954944,61.1411 43.952679,62.049303 45,62 l 28,0 c 1.056621,0.01494 2.02847,-0.943274 2.02847,-2 0,-1.056726 -0.971849,-2.014936 -2.02847,-2 -9.390897,-10e-7 -18.810225,0 -28.1875,0 z M 32,72 c -3.842305,0 -7,3.1577 -7,7 0,3.8423 3.157695,7 7,7 3.842304,0 7,-3.1577 7,-7 0,-3.8423 -3.157696,-7 -7,-7 z m 0,4 c 1.680544,0 3,1.3195 3,3 0,1.6805 -1.319456,3 -3,3 -1.680545,0 -3,-1.3195 -3,-3 0,-1.6805 1.319455,-3 3,-3 z m 12.8125,1 c -1.047341,0.04888 -1.955743,1.046438 -1.906649,2.093769 C 42.954944,80.1411 43.952679,81.049303 45,81 l 28,0 c 1.056621,0.01494 2.02847,-0.943274 2.02847,-2 0,-1.056726 -0.971849,-2.014936 -2.02847,-2 -9.390897,-10e-7 -18.810225,0 -28.1875,0 z" transform="translate(0,952.36218)" fill="#016a5c" fill-opacity="1" stroke="none" marker="none" visibility="visible" display="inline" overflow="visible"></path></g></svg>