<svg height='100px' width='100px'  fill="#016a5c" xmlns="http://www.w3.org/2000/svg" xmlns:xlink="http://www.w3.org/1999/xlink" version="1.1" x="0px" y="0px" viewBox="0 0 90 90" enable-background="new 0 0 90 90" xml:space="preserve"><path fill-rule="evenodd" clip-rule="evenodd" d="M34.359,14.908h21.303c1.582,0,2.813,1.238,2.813,2.828v10.91  c0,1.59-1.23,2.828-2.813,2.828h-3.543c-0.625,0-1.129,0.51-1.129,1.135v3.564c0,0.688-0.5,0.635-0.762,0.27l-3.202-4.488  c-0.208-0.305-0.552-0.48-0.922-0.48h-11.74c-1.577,0-2.816-1.238-2.816-2.828v-10.91C31.548,16.146,32.782,14.908,34.359,14.908z   M34.359,12.643c-2.802,0-5.083,2.289-5.083,5.094v10.91c0,2.801,2.293,5.094,5.088,5.094h11.157l2.859,4.02  c0.75,1.059,1.963,1.568,3.025,1.305c1.063-0.271,1.85-1.313,1.85-2.484v-2.84h2.406c2.801,0,5.088-2.293,5.088-5.094v-10.91  c0-2.805-2.287-5.094-5.088-5.094H34.359z"></path><path fill-rule="evenodd" clip-rule="evenodd" d="M28.339,37.057c0,5.047-4.078,9.143-9.114,9.143s-9.12-4.096-9.12-9.143  c0-2.426,0.959-4.754,2.672-6.467c1.709-1.715,4.025-2.678,6.448-2.678c2.416,0,4.735,0.963,6.448,2.678  C27.381,32.303,28.339,34.631,28.339,37.057z"></path><path fill-rule="evenodd" clip-rule="evenodd" d="M79.922,37.057c0,5.047-4.084,9.143-9.119,9.143c-2.418,0-4.74-0.963-6.449-2.678  c-1.707-1.713-2.672-4.041-2.672-6.465c0-2.426,0.965-4.754,2.672-6.467c1.709-1.715,4.031-2.678,6.449-2.678  C75.838,27.912,79.922,32.006,79.922,37.057z"></path><path fill-rule="evenodd" clip-rule="evenodd" d="M70.797,51.256c5.006,0,9.01,3.975,9.01,8.928v13.186  c0,2.168-1.729,3.891-3.9,3.891H57.822c-0.641,0-1.109-0.227-1.422-0.67c-0.807-1.152-0.66-2.281-0.098-3.371  c0.254-0.506,0.807-0.775,1.572-0.844l12.197-1.123c1.121-0.105,1.928-0.496,2.381-1.131c0.459-0.631,0.525-1.381,0.525-2.088  v-8.387c0.047-0.891-0.932-0.891-0.885,0l-0.385,8.387c-0.063,1.336-0.746,1.852-1.756,1.947l-7.197,0.666  c-0.678,0.063-0.959-0.354-0.959-0.875v-9.588C61.797,55.23,65.797,51.256,70.797,51.256z"></path><path fill-rule="evenodd" clip-rule="evenodd" d="M19.225,51.256c5,0,9,3.975,9,8.928v4.426c0,1.938-2.584,2.627-3.614,1.063  l-3.803-5.74c-0.443-0.676-1.094-0.266-0.713,0.406l3.406,5.965c0.354,0.615,0.797,1.225,1.505,1.543  c0.714,0.311,1.594,0.248,2.614-0.203l9.563-4.219c0.708-0.314,1.29-0.268,1.812-0.039c0.521,0.236,0.974,0.695,1.266,1.242  c0.292,0.545,0.412,1.172,0.328,1.701c-0.088,0.533-0.343,0.975-0.896,1.293l-6.265,3.619l-0.025,0.012  c-0.032,0.014-0.058,0.029-0.09,0.051L25.6,75.756c-1.88,1.082-4.249,0.457-5.328-1.422l-5.88-10.063  c-0.396-0.834-1.354-0.307-0.828,0.453l5.599,10.246c0.458,0.844,0.183,1.311-0.958,1.311H10.22V60.184  C10.22,55.23,14.225,51.256,19.225,51.256z"></path><path fill-rule="evenodd" clip-rule="evenodd" d="M37.553,54.455h8.271c0.844,0,1.245,0.619,1.141,1.338l-2.703,18.725  c-0.104,0.713-0.344,0.941-1.375,0.941h-8.177c-0.646,0-0.858-0.313-0.781-0.855l0.276-1.926c0.072-0.512,0.141-0.5,0.469-0.693  l5.656-3.26c0.875-0.506,1.375-1.334,1.516-2.188c0.135-0.859-0.052-1.738-0.464-2.51c-0.407-0.771-1.042-1.438-1.864-1.803  c-0.828-0.369-1.838-0.41-2.844,0.031l-0.459,0.203c-0.447,0.197-0.505-0.16-0.479-0.365l1.006-6.973  C36.802,54.699,36.859,54.455,37.553,54.455z"></path></svg>