<svg height='100px' width='100px'  fill="#006c5c" xmlns="http://www.w3.org/2000/svg" xmlns:xlink="http://www.w3.org/1999/xlink" version="1.1" x="0px" y="0px" viewBox="0 0 60 60" style="enable-background:new 0 0 60 60;" xml:space="preserve"><path d="M44.12,16.18c0.47,2.55,2.71,4.49,5.39,4.49c3.03,0,5.49-2.46,5.49-5.49c0-3.03-2.46-5.49-5.49-5.49  c-2.68,0-4.92,1.94-5.39,4.49h-5.24c-0.55,0-1,0.45-1,1V29h-6.7c0.12-0.33,0.2-0.68,0.2-1.05v-5.56c0-0.79-0.31-1.5-0.81-2.05  c0.5-0.54,0.81-1.26,0.81-2.05v-5.56c0-1.68-1.37-3.05-3.05-3.05H8.05C6.37,9.69,5,11.05,5,12.73v5.56c0,0.79,0.31,1.5,0.81,2.05  C5.31,20.89,5,21.6,5,22.39v5.56c0,0.79,0.31,1.5,0.81,2.05C5.31,30.54,5,31.26,5,32.05v5.56c0,0.79,0.31,1.5,0.81,2.05  C5.31,40.2,5,40.91,5,41.7v5.56c0,1.68,1.37,3.05,3.05,3.05h20.29c1.68,0,3.05-1.37,3.05-3.05V41.7c0-0.79-0.31-1.5-0.81-2.05  c0.5-0.54,0.81-1.26,0.81-2.05v-5.56c0-0.37-0.08-0.72-0.2-1.05h6.7v13.82c0,0.55,0.45,1,1,1h5.24c0.47,2.55,2.71,4.49,5.39,4.49  c3.03,0,5.49-2.46,5.49-5.49s-2.46-5.49-5.49-5.49c-2.68,0-4.92,1.94-5.39,4.49h-4.24V31h4.24c0.47,2.55,2.71,4.49,5.39,4.49  c3.03,0,5.49-2.46,5.49-5.49s-2.46-5.49-5.49-5.49c-2.68,0-4.92,1.94-5.39,4.49h-4.24V16.18H44.12z M49.51,11.69  c1.92,0,3.49,1.56,3.49,3.49s-1.56,3.49-3.49,3.49s-3.49-1.57-3.49-3.49S47.59,11.69,49.51,11.69z M8.05,29C7.47,29,7,28.53,7,27.95  v-5.56c0-0.58,0.47-1.05,1.05-1.05h20.29c0.58,0,1.05,0.47,1.05,1.05v5.56c0,0.58-0.47,1.05-1.05,1.05H8.05z M7,12.73  c0-0.58,0.47-1.05,1.05-1.05h20.29c0.58,0,1.05,0.47,1.05,1.05v5.56c0,0.58-0.47,1.05-1.05,1.05H8.05C7.47,19.34,7,18.87,7,18.3  V12.73z M29.38,47.27c0,0.58-0.47,1.05-1.05,1.05H8.05C7.47,48.31,7,47.84,7,47.27V41.7c0-0.58,0.47-1.05,1.05-1.05h20.29  c0.58,0,1.05,0.47,1.05,1.05V47.27z M29.38,32.05v5.56c0,0.58-0.47,1.05-1.05,1.05H8.05C7.47,38.66,7,38.19,7,37.61v-5.56  C7,31.47,7.47,31,8.05,31h20.29C28.91,31,29.38,31.47,29.38,32.05z M49.51,41.34c1.92,0,3.49,1.56,3.49,3.49s-1.56,3.49-3.49,3.49  s-3.49-1.56-3.49-3.49S47.59,41.34,49.51,41.34z M49.51,26.51c1.92,0,3.49,1.56,3.49,3.49s-1.56,3.49-3.49,3.49  s-3.49-1.56-3.49-3.49S47.59,26.51,49.51,26.51z"></path></svg>