<svg height='100px' width='100px'  fill="#006c5c" xmlns="http://www.w3.org/2000/svg" xmlns:xlink="http://www.w3.org/1999/xlink" xml:space="preserve" version="1.1" style="shape-rendering:geometricPrecision;text-rendering:geometricPrecision;image-rendering:optimizeQuality;" viewBox="0 0 846.66 846.66" x="0px" y="0px" fill-rule="evenodd" clip-rule="evenodd"><defs><style type="text/css">
   
    .fil0 {fill:#006c5c}
   
  </style></defs><g><path class="fil0" d="M512.54 672.5l-78.21 0 0 -192.22c0,-45.13 -18.45,-86.15 -48.21,-115.87 -29.73,-29.72 -70.74,-48.17 -115.84,-48.17 -45.13,0 -86.15,18.45 -115.87,48.17 -29.72,29.72 -48.17,70.74 -48.17,115.87l0 192.22 -39.67 0 0 -313.97c0,-71.29 58.31,-129.59 129.59,-129.59l112.74 0c112.01,0 203.64,91.63 203.64,203.64l0 239.92zm-486.76 -423.24l69.24 -63.06c18.85,-17.17 48.21,-15.8 65.38,3.05l24.61 27.02c-74.08,0 -132.9,55.93 -132.9,130.64l-29.39 -32.27c-17.17,-18.85 -15.79,-48.21 3.06,-65.38zm511.17 319.99l260.5 0 0 -62.68 38.53 0 0 165.93 -45.54 0 0 -48.07 -21.86 0 0 48.07 -45.04 0 0 -48.07 -21.86 0 0 48.07 -45.04 0 0 -48.07 -21.87 0 0 48.07 -45.03 0 0 -48.07 -21.87 0 0 48.07 -30.92 0 0 -103.25zm-266.66 -140.41c39.21,0 71,31.79 71,71 0,39.21 -31.79,71 -71,71 -39.21,0 -71,-31.79 -71,-71 0,-39.21 31.79,-71 71,-71zm0 -29.41c55.44,0 100.41,44.97 100.41,100.41 0,55.44 -44.97,100.41 -100.41,100.41 -55.44,0 -100.41,-44.97 -100.41,-100.41 0,-55.44 44.97,-100.41 100.41,-100.41zm142.18 273.07l-284.37 0 0 -192.22c0,-39.1 16.01,-74.65 41.77,-100.41 25.76,-25.76 61.31,-41.77 100.42,-41.77 39.1,0 74.66,15.99 100.41,41.77 25.76,25.76 41.77,61.31 41.77,100.41l0 192.22z"></path></g></svg>