<svg height='100px' width='100px'  fill="#006b5c" xmlns="http://www.w3.org/2000/svg" xmlns:xlink="http://www.w3.org/1999/xlink" xml:space="preserve" version="1.0" style="shape-rendering:geometricPrecision;text-rendering:geometricPrecision;image-rendering:optimizeQuality;" viewBox="0 0 100 100" x="0px" y="0px" fill-rule="evenodd" clip-rule="evenodd"><defs><style type="text/css">
   
    .fil0 {fill:#006b5c;fill-rule:nonzero}
   
  </style></defs><g><path class="fil0" d="M23.38 68.7l-19.97 0c-1.33,0 -2.41,-1.08 -2.41,-2.41l0 -44.51c0,-1.33 1.08,-2.41 2.41,-2.41l15.46 0 0 -4.71c0,-3.17 4.81,-3.17 4.81,0l0 4.71 3.08 0 0 -9.53c0,-1.33 1.08,-2.4 2.41,-2.4l41.66 0c1.33,0 2.41,1.07 2.41,2.4l0 9.53 3.08 0 0 -4.71c0,-3.17 4.81,-3.17 4.81,0l0 4.71 15.46 0c1.33,0 2.41,1.08 2.41,2.41l0 44.51c0,1.33 -1.08,2.41 -2.41,2.41l-19.97 0c-1.33,0 -2.41,-1.08 -2.41,-2.41l0 -8.02 -2.55 0 0 31.89c0,1.33 -1.08,2.4 -2.41,2.4l-38.5 0c-1.33,0 -2.41,-1.07 -2.41,-2.4l0 -31.89 -2.55 0 0 8.02c0,1.33 -1.08,2.41 -2.41,2.41zm8.2 -49.33l36.84 0 0 -7.12 -36.84 0 0 7.12zm8.69 47.83c-3.16,0 -3.16,-4.81 0,-4.81l19.46 0c3.16,0 3.16,4.81 0,4.81l-19.46 0zm0 16.44c-3.16,0 -3.16,-4.81 0,-4.81l19.46 0c3.16,0 3.16,4.81 0,4.81l-19.46 0zm0 -8.22c-3.16,0 -3.16,-4.81 0,-4.81l19.46 0c3.16,0 3.16,4.81 0,4.81l-19.46 0zm26.58 -17.15l-33.7 0 0 29.48 33.7 0 0 -29.48zm-47.13 -27.67l60.56 0c1.33,0 2.41,1.08 2.41,2.41l0 11.03c0,1.33 -1.08,2.4 -2.41,2.4l-60.56 0c-1.33,0 -2.41,-1.07 -2.41,-2.4l0 -11.03c0,-1.33 1.08,-2.41 2.41,-2.41zm58.15 4.81l-55.74 0 0 6.22 55.74 0 0 -6.22zm-72.06 28.48l15.17 0 0 -8.02c0,-1.33 1.07,-2.41 2.4,-2.41 17.75,0 35.49,0 53.24,0 1.33,0 2.4,1.08 2.4,2.41l0 8.02 15.17 0 0 -39.71c-29.46,0 -58.92,0 -88.38,0l0 39.71z"></path></g></svg>