<svg height='100px' width='100px'  fill="#f96302" xmlns="http://www.w3.org/2000/svg" xmlns:xlink="http://www.w3.org/1999/xlink" version="1.1" x="0px" y="0px" viewBox="0 0 96 96" enable-background="new 0 0 96 96" xml:space="preserve"><path d="M35.989,55.489l-2.261,2.261l4.501,4.502l2.553-2.552c2.797,1.196,5.962,0.623,8.045-1.463  c3.179-3.178,2.125-6.929,1.062-9.46c-0.799-1.983-0.749-2.44-0.708-2.521c0.06-0.06,0.096-0.06,0.114-0.06  c0.027,0,0.278,0.013,0.722,0.456c0.922,0.92,1.165,1.814,1.311,2.351l0.694,2.547l6.072-2.728l-0.516-1.867  c-0.26-0.942-0.642-1.813-1.16-2.64l2.219-2.219l-4.504-4.501l-2.48,2.479c-2.676-1.11-5.702-0.546-7.68,1.432  c-3.369,3.37-1.405,7.857-0.67,9.534c0.536,1.27,0.656,2.064,0.356,2.363c-0.288,0.286-0.833,0.062-1.331-0.437  c-0.705-0.705-1.268-1.754-1.471-2.739l-0.583-2.805l-6.029,2.846l0.28,1.685C34.715,53.094,35.228,54.325,35.989,55.489z   M38.165,51.739c0.417,1.247,1.146,2.454,2.042,3.351c0.92,0.919,2.043,1.425,3.165,1.425c0.915,0,1.77-0.351,2.408-0.987  c1.667-1.664,1.027-3.897,0.279-5.67c-1.34-3.061-1.33-4.865,0.035-6.229c1.31-1.31,3.335-1.485,5.087-0.438l1.003,0.597  l1.948-1.947l0.262,0.262l-1.954,1.952l0.854,1.05c0.528,0.647,0.922,1.323,1.197,2.053l-0.523,0.235  c-0.279-0.77-0.796-1.826-1.829-2.858c-1.103-1.103-2.154-1.334-2.842-1.334c-0.836,0-1.629,0.333-2.234,0.938  c-1.372,1.373-1.06,3.021,0.055,5.785c1.058,2.516,1.358,4.43-0.409,6.197c-1.419,1.417-3.575,1.597-5.437,0.468l-1.006-0.609  l-2.035,2.035l-0.259-0.26l2.02-2.019l-0.874-1.052c-0.695-0.838-1.242-1.821-1.504-2.684L38.165,51.739z"></path><path d="M10.562,54.836l30.604,30.603L83.23,43.374l1.856-32.461l-32.46,1.857L10.562,54.836z M81.898,14.102L80.3,42.063  L41.166,81.196l-26.362-26.36L53.939,15.7L81.898,14.102z"></path><path d="M67.523,34.246c1.542,0,2.991-0.601,4.081-1.69c1.088-1.089,1.688-2.537,1.69-4.08c0-1.542-0.601-2.991-1.69-4.077  c-1.088-1.091-2.538-1.691-4.081-1.691c-1.541,0-2.989,0.601-4.08,1.69c-1.088,1.088-1.687,2.536-1.687,4.079  s0.599,2.991,1.687,4.079C64.534,33.646,65.982,34.246,67.523,34.246z M65.564,26.519c0.523-0.522,1.218-0.811,1.959-0.811  s1.436,0.288,1.959,0.811c0.523,0.523,0.812,1.22,0.812,1.959s-0.289,1.436-0.812,1.958c-0.987,0.986-2.934,0.985-3.918,0.001  C64.485,29.356,64.485,27.599,65.564,26.519z"></path></svg>