<svg height='100px' width='100px'  fill="#006b5c" xmlns="http://www.w3.org/2000/svg" viewBox="0 0 40 40" x="0px" y="0px"><path fill="#006b5c" fill-rule="evenodd" d="M68,22.9918842 C68,21.8917969 68.8926228,21 69.9950893,21 L84.0049107,21 C85.1067681,21 86,21.8933973 86,22.9918842 L86,34.0081158 C86,35.1082031 85.1073772,36 84.0049107,36 L69.9950893,36 C68.8932319,36 68,35.1066027 68,34.0081158 L68,22.9918842 Z M70,23.5012308 L70,33.4987692 C70,33.7702494 70.2230819,34 70.4982674,34 L83.5017326,34 C83.7800934,34 84,33.7755913 84,33.4987692 L84,23.5012308 C84,23.2297506 83.7769181,23 83.5017326,23 L70.4982674,23 C70.2199066,23 70,23.2244087 70,23.5012308 Z M54,22.9918842 C54,21.8917969 54.9019504,21 56.0085302,21 L63.9914698,21 C65.1007504,21 66,21.8933973 66,22.9918842 L66,34.0081158 C66,35.1082031 65.0980496,36 63.9914698,36 L56.0085302,36 C54.8992496,36 54,35.1066027 54,34.0081158 L54,22.9918842 Z M56,23.5012308 L56,33.4987692 C56,33.7702494 56.2240528,34 56.5004358,34 L63.4995642,34 C63.7692032,34 64,33.7755913 64,33.4987692 L64,23.5012308 C64,23.2297506 63.7759472,23 63.4995642,23 L56.5004358,23 C56.2307968,23 56,23.2244087 56,23.5012308 Z M75,5.99188419 C75,4.89179693 75.9001762,4 76.992017,4 L84.007983,4 C85.1081436,4 86,4.89339733 86,5.99188419 L86,17.0081158 C86,18.1082031 85.0998238,19 84.007983,19 L76.992017,19 C75.8918564,19 75,18.1066027 75,17.0081158 L75,5.99188419 Z M77,6.50123084 L77,16.4987692 C77,16.7702494 77.22539,17 77.5034227,17 L83.4965773,17 C83.7670975,17 84,16.7755913 84,16.4987692 L84,6.50123084 C84,6.22975063 83.77461,6 83.4965773,6 L77.5034227,6 C77.2329025,6 77,6.22440869 77,6.50123084 Z M54,5.99188419 C54,4.89179693 54.8909254,4 55.9974219,4 L71.0025781,4 C72.1057238,4 73,4.89339733 73,5.99188419 L73,17.0081158 C73,18.1082031 72.1090746,19 71.0025781,19 L55.9974219,19 C54.8942762,19 54,18.1066027 54,17.0081158 L54,5.99188419 Z M56,6.50123084 L56,16.4987692 C56,16.7702494 56.2234443,17 56.4990768,17 L70.5009232,17 C70.7763174,17 71,16.7755913 71,16.4987692 L71,6.50123084 C71,6.22975063 70.7765557,6 70.5009232,6 L56.4990768,6 C56.2236826,6 56,6.22440869 56,6.50123084 Z" transform="translate(-50)"></path></svg>