<svg height='100px' width='100px'  fill="#006b5c" xmlns="http://www.w3.org/2000/svg" viewBox="0 0 64 64" x="0px" y="0px"><title>quote, sentence, caption, text, description</title><g><path d="M47,42.5a10.945,10.945,0,0,1-4.6,8.2,1.5,1.5,0,0,1-1.8-2.4A8.5,8.5,0,0,0,43.718,44H40.5a1.5,1.5,0,0,1,0-3h5A1.5,1.5,0,0,1,47,42.5ZM55.5,41h-5a1.5,1.5,0,0,0,0,3h3.218A8.5,8.5,0,0,1,50.6,48.3a1.5,1.5,0,1,0,1.8,2.4A10.945,10.945,0,0,0,57,42.5,1.5,1.5,0,0,0,55.5,41Zm-37-18h5a1.5,1.5,0,0,0,0-3H20.282A8.5,8.5,0,0,1,23.4,15.7a1.5,1.5,0,0,0-1.8-2.4A10.945,10.945,0,0,0,17,21.5,1.5,1.5,0,0,0,18.5,23Zm-10,0h5a1.5,1.5,0,0,0,0-3H10.282A8.5,8.5,0,0,1,13.4,15.7a1.5,1.5,0,0,0-1.8-2.4A10.945,10.945,0,0,0,7,21.5,1.5,1.5,0,0,0,8.5,23Zm22,0h25a1.5,1.5,0,0,0,0-3h-25a1.5,1.5,0,0,0,0,3Zm25,4H8.5a1.5,1.5,0,0,0,0,3h47a1.5,1.5,0,0,0,0-3Zm0,7H8.5a1.5,1.5,0,0,0,0,3h47a1.5,1.5,0,0,0,0-3Zm-22,7H8.5a1.5,1.5,0,0,0,0,3h25a1.5,1.5,0,0,0,0-3Z"></path></g></svg>