<svg height='100px' width='100px'  fill="#006b5c" xmlns="http://www.w3.org/2000/svg" xmlns:xlink="http://www.w3.org/1999/xlink" version="1.1" x="0px" y="0px" viewBox="0 0 100 100" style="enable-background:new 0 0 100 100;" xml:space="preserve"><path d="M89.0073242,9.9946289h-78c-0.5522461,0-1,0.4477539-1,1v17.112793c0,3.2788086,2.1351318,6.0648804,5.0913086,7.0672607  v29.0064087c-3.1218872,2.7047119-5.105957,6.663269-5.105957,11.0796509c0,8.1303711,6.690918,14.7446289,14.9155273,14.7446289  c6.3137817,0,11.7105103-3.9042358,13.8835449-9.3935547h45.1164551v8.3930664c0,0.5522461,0.4477539,1,1,1s1-0.4477539,1-1  V34.7565308c2.4290771-1.2375488,4.0991211-3.7503052,4.0991211-6.6491089v-17.112793  C90.0073242,10.4423828,89.5595703,9.9946289,89.0073242,9.9946289z M75.0073242,26.2109375v1.8964844  c0,3.0161133-2.4672852,5.4697266-5.5,5.4697266s-5.5-2.4536133-5.5-5.4697266v-1.8964844V11.9946289h11V26.2109375z   M25.0073242,26.2109375V11.9946289h11v14.2163086v1.8964844c0,3.0161133-2.4672852,5.4697266-5.5,5.4697266  s-5.5-2.4536133-5.5-5.4697266V26.2109375z M38.0073242,26.2109375V11.9946289h11v14.2163086v1.8964844  c0,3.0161133-2.4672852,5.4697266-5.5,5.4697266s-5.5-2.4536133-5.5-5.4697266V26.2109375z M51.0073242,26.2109375V11.9946289h11  v14.2163086v1.8964844c0,3.0161133-2.4672852,5.4697266-5.5,5.4697266s-5.5-2.4536133-5.5-5.4697266V26.2109375z   M12.0073242,28.1074219v-16.112793h11v14.2163086v1.8964844c0,3.0161133-2.4672852,5.4697266-5.5,5.4697266  S12.0073242,31.1235352,12.0073242,28.1074219z M23.9082031,62.5656128v10.9628906l-9.5931396-5.5386353  C16.4712524,64.9403687,19.9398804,62.8679199,23.9082031,62.5656128z M36.5179443,80.8082886l-9.609375-5.5476074  l9.609314-5.5479126c0.8279419,1.6799316,1.3058472,3.5576782,1.3058472,5.5479736  C37.8237305,77.2508545,37.3458252,79.128418,36.5179443,80.8082886z M25.9082031,73.5285034V62.5656128  c3.9683228,0.3023071,7.4369507,2.3747559,9.5931396,5.4242554L25.9082031,73.5285034z M13.2985229,69.7127686l9.609314,5.5479126  l-9.609375,5.5476074c-0.8278809-1.6798706-1.3057861-3.5574341-1.3057861-5.5475464  C11.9926758,73.2704468,12.4705811,71.3927002,13.2985229,69.7127686z M14.3150024,82.5311279l9.5932007-5.538208v10.9624634  C19.9398804,87.6530762,16.4711304,85.5805664,14.3150024,82.5311279z M25.9082031,87.9553833V76.9929199l9.5932007,5.538208  C33.3452759,85.5805664,29.8765259,87.6530762,25.9082031,87.9553833z M39.4202271,78.6118164  c0.2549438-1.0784912,0.4035034-2.1968384,0.4035034-3.3510742c0-8.1303711-6.690918-14.7451172-14.9155273-14.7451172  c-2.8651733,0-5.534729,0.8165894-7.8095703,2.206543V51.6782227h66.8095703v26.9335938H39.4202271z M83.9082031,49.6782227  H17.0986328V35.5565186c0.1361084,0.0073853,0.270752,0.0206299,0.4086914,0.0206299c2.7790527,0,5.2042847-1.5167236,6.5-3.7590942  c1.2957153,2.2423706,3.7209473,3.7590942,6.5,3.7590942s5.2042847-1.5167236,6.5-3.7590942  c1.2957153,2.2423706,3.7209473,3.7590942,6.5,3.7590942s5.2042847-1.5167236,6.5-3.7590942  c1.2957153,2.2423706,3.7209473,3.7590942,6.5,3.7590942s5.2042847-1.5167236,6.5-3.7590942  c1.2957153,2.2423706,3.7209473,3.7590942,6.5,3.7590942s5.2042847-1.5167236,6.5-3.7590942  c1.2957153,2.2423706,3.7209473,3.7590942,6.5,3.7590942c0.479126,0,0.9464722-0.0494995,1.4008789-0.135437V49.6782227z   M88.0073242,28.1074219c0,3.0161133-2.4672852,5.4697266-5.5,5.4697266s-5.5-2.4536133-5.5-5.4697266v-1.8964844V11.9946289h11  V28.1074219z"></path><path d="M62.1069336,61.8271484c-0.1074219-0.3295898-0.3774414-0.5800781-0.7138672-0.6625977l-5.8007812-1.4165039  l-3.1391602-5.0786133c-0.1821289-0.2944336-0.5039062-0.4741211-0.8505859-0.4741211s-0.668457,0.1791992-0.8505859,0.4741211  l-3.1396484,5.0786133l-5.8007812,1.4165039c-0.3364258,0.0825195-0.6064453,0.3330078-0.7138672,0.6625977  c-0.1069336,0.3295898-0.0356445,0.6914062,0.1884766,0.9555664l3.8603516,4.5551758l-0.4453125,5.9541016  c-0.0258789,0.3457031,0.1289062,0.6801758,0.4091797,0.8837891c0.28125,0.2036133,0.6469727,0.2485352,0.9667969,0.1162109  l5.5253906-2.2636719l5.5253906,2.2636719c0.1220703,0.050293,0.2504883,0.074707,0.3789062,0.074707  c0.2080078,0,0.4140625-0.0649414,0.5878906-0.190918c0.2802734-0.2036133,0.4350586-0.5380859,0.4091797-0.8837891  l-0.4453125-5.9541016l3.8598633-4.5551758C62.1425781,62.5185547,62.2138672,62.1567383,62.1069336,61.8271484z   M56.2680664,66.3574219c-0.1699219,0.2001953-0.2539062,0.4594727-0.234375,0.7211914l0.3549805,4.7495117l-4.4072266-1.8056641  c-0.1210938-0.0498047-0.25-0.074707-0.3789062-0.074707s-0.2578125,0.0249023-0.3789062,0.074707l-4.4072266,1.8056641  l0.3549805-4.7495117c0.0195312-0.2617188-0.0644531-0.5209961-0.234375-0.7211914l-3.0791016-3.6333008l4.6269531-1.1298828  c0.2548828-0.0625,0.4750977-0.2226562,0.6132812-0.4458008l2.5043945-4.0512695l2.5039062,4.0512695  c0.1381836,0.2231445,0.3583984,0.3833008,0.6132812,0.4458008l4.6274414,1.1298828L56.2680664,66.3574219z"></path></svg>