<svg height='100px' width='100px'  fill="#006c5c" xmlns="http://www.w3.org/2000/svg" xmlns:xlink="http://www.w3.org/1999/xlink" version="1.1" x="0px" y="0px" viewBox="0 0 64 64" enable-background="new 0 0 64 64" xml:space="preserve"><g><path d="M58,40h-3V27.1867065C56.8375854,26.1140137,58,24.1499023,58,22v-9c0-0.0016479-0.0009155-0.0030518-0.0009155-0.0046997   c-0.0005493-0.1167603-0.027771-0.2310181-0.0690918-0.34198c-0.0107422-0.0288696-0.022522-0.0554199-0.0358276-0.0829468   c-0.0134277-0.0280151-0.0205688-0.0580444-0.0367432-0.085022l-6-10C51.6767578,2.184082,51.3510742,2,51,2h-8h-8h-6h-8h-8   c-0.3510742,0-0.6767578,0.184082-0.8574219,0.4853516l-6,10c-0.0161743,0.0269165-0.0232544,0.0569458-0.0366821,0.0849609   c-0.0133057,0.0275879-0.0250854,0.0541992-0.0358887,0.0831909c-0.0413208,0.1109009-0.0685425,0.2250977-0.0690918,0.3417969   C6.0009155,12.9969482,6,12.9983521,6,13v9c0,2.1463623,1.1583252,4.1078491,3,5.1860352V40H6c-0.5522461,0-1,0.4477539-1,1v6   c0,0.5522461,0.4477539,1,1,1h2v13c0,0.5522461,0.4477539,1,1,1h46c0.5522461,0,1-0.4477539,1-1V48h2c0.5522461,0,1-0.4477539,1-1   v-6C59,40.4477539,58.5522461,40,58,40z M42,40v-9c0-0.5522461-0.4477539-1-1-1h-6c-0.5522461,0-1,0.4477539-1,1v5h-6v-3   c0-0.5522461-0.4477539-1-1-1h-4c-0.5522461,0-1,0.4477539-1,1v7h-7V27.1867065   c0.8115234-0.4736938,1.4949951-1.1149902,1.9996338-1.8777466C18.0750732,26.928833,19.9139404,28,22,28   c2.0858154,0,3.9244995-1.0708618,5-2.6904297C28.0755005,26.9291382,29.9141846,28,32,28s3.9244995-1.0708618,5-2.6904297   C38.0755005,26.9291382,39.9141846,28,42,28c2.0863647,0,3.9254761-1.0714722,5.0008545-2.6918335   C47.5050049,26.0693359,48.1878052,26.7105713,49,27.1860352V40H42z M28,40v-2h6v2H28z M24,40v-6h2v3v3H24z M36,37v-5h4v8h-4V37z    M18,14h8v8c0,2.2055664-1.7944336,4-4,4s-4-1.7944336-4-4V14z M29.8198242,4h4.3603516l1.6000977,8h-7.5605469L29.8198242,4z    M46,22c0,2.2055664-1.7944336,4-4,4s-4-1.7944336-4-4v-8h8V22z M36,22c0,2.2055664-1.7944336,4-4,4s-4-1.7944336-4-4v-8h8V22z    M51,27.9174805c0.0336304,0.0056152,0.0684814,0.003418,0.1022949,0.0084839   c0.2937622,0.0438232,0.5899658,0.0733032,0.8901978,0.0736694c0.0050049,0,0.0100098,0,0.0150146,0   c0.2987671-0.0003662,0.5938721-0.0297241,0.8867798-0.0734253C52.9291992,27.9210205,52.96521,27.9233398,53,27.9174805V40h-2   V27.9174805z M56,22c0,1.5854492-0.9438477,3.0283203-2.3925781,3.6699219   c-0.769043,0.3288574-1.62323,0.4077759-2.4241333,0.2466431c-0.2679443-0.0545044-0.5314941-0.1365967-0.7866211-0.2453613   C48.9403076,25.0217896,48,23.5822144,48,22v-8h8V22z M55.2338867,12h-7.5565186L44.477356,4h5.9562378L55.2338867,12z    M42.3226318,4l3.2000122,8h-7.7028198l-1.6000977-8H42.3226318z M26.1801758,12H18.477356l3.2000122-8h6.1029053L26.1801758,12z    M13.5664063,4h5.9562378l-3.2000122,8H8.7661133L13.5664063,4z M8,14h8v8c0,1.5854492-0.9438477,3.0283203-2.3925781,3.6699219   c-0.769043,0.3288574-1.62323,0.4077759-2.4241333,0.2466431c-0.2679443-0.0545044-0.5314941-0.1365967-0.7866211-0.2453613   C8.9403076,25.0217896,8,23.5822144,8,22V14z M11,27.9174805c0.0336304,0.0056152,0.0684814,0.003418,0.1022949,0.0084839   c0.2937622,0.0438232,0.5899658,0.0733032,0.8901978,0.0736694c0.0050049,0,0.0100098,0,0.0150146,0   c0.2987671-0.0003662,0.5938721-0.0297241,0.8867798-0.0734253C12.9291992,27.9210205,12.96521,27.9233398,13,27.9174805V40h-2   V27.9174805z M54,60H10V48h44V60z M57,46h-2H9H7v-4h3h4h9h4h8h6h9h4h3V46z"></path><circle cx="25" cy="52.0083008" r="2"></circle><circle cx="39" cy="52.0083008" r="2"></circle><path d="M32,59.4790039c4.609375,0,9.21875-1.7543945,12.7280273-5.2636719c0.390625-0.390625,0.390625-1.0234375,0-1.4140625   s-1.0234375-0.390625-1.4140625,0c-6.2382813,6.2382813-16.3896484,6.2382813-22.6279297,0   c-0.390625-0.390625-1.0234375-0.390625-1.4140625,0s-0.390625,1.0234375,0,1.4140625   C22.78125,57.7246094,27.390625,59.4790039,32,59.4790039z"></path></g></svg>