<svg height='100px' width='100px'  fill="#006c5c" xmlns="http://www.w3.org/2000/svg" xmlns:xlink="http://www.w3.org/1999/xlink" version="1.1" x="0px" y="0px" viewBox="0 0 32 32" enable-background="new 0 0 32 32" xml:space="preserve"><g><path d="M22,24H10c-4.411,0-8-3.589-8-8s3.589-8,8-8h12c4.411,0,8,3.589,8,8S26.411,24,22,24z M10,10c-3.309,0-6,2.691-6,6   s2.691,6,6,6h12c3.309,0,6-2.691,6-6s-2.691-6-6-6H10z M10,21c-2.757,0-5-2.243-5-5s2.243-5,5-5s5,2.243,5,5S12.757,21,10,21z    M10,13c-1.654,0-3,1.346-3,3s1.346,3,3,3s3-1.346,3-3S11.654,13,10,13z"></path></g></svg>