<svg xmlns="http://www.w3.org/2000/svg" xmlns:xlink="http://www.w3.org/1999/xlink" width="100" height="100" viewBox="0 0 100 100"><g transform="translate(50 50) scale(0.69 0.69) rotate(-180) translate(-50 -50)" style="fill:#006c5c"><svg fill="#006c5c" xmlns="http://www.w3.org/2000/svg" xmlns:xlink="http://www.w3.org/1999/xlink" version="1.1" x="0px" y="0px" viewBox="0 0 100 100" enable-background="new 0 0 100 100" xml:space="preserve"><g><path d="M69.802,24.727H30.197C16.901,24.727,6.083,36.064,6.083,50c0,13.936,10.818,25.273,24.114,25.273h39.604   c13.296,0,24.115-11.338,24.115-25.273C93.917,36.064,83.098,24.727,69.802,24.727z M69.802,71.595H30.197   C18.929,71.595,9.762,61.908,9.762,50c0-11.907,9.167-21.595,20.436-21.595h39.604c11.269,0,20.437,9.688,20.437,21.595   C90.238,61.908,81.07,71.595,69.802,71.595z"></path><circle cx="32.073" cy="50" r="18.622"></circle></g></svg></g></svg>