<svg height='100px' width='100px'  fill="#016a5c" xmlns="http://www.w3.org/2000/svg" xmlns:xlink="http://www.w3.org/1999/xlink" version="1.0" x="0px" y="0px" viewBox="0 0 100 100" enable-background="new 0 0 100 100" xml:space="preserve"><path d="M52.354,10.977c-1.299-1.302-3.408-1.302-4.71,0l-9.431,9.427l3.538,3.535l5.746-5.742V30h5V18.19l0,0l5.748,5.752  l3.542-3.538L52.354,10.977z"></path><path d="M47.646,89.023c1.299,1.303,3.408,1.303,4.71,0l9.431-9.428l-3.538-3.535l-5.746,5.742V70h-5v11.811l0,0l-5.748-5.752  l-3.542,3.537L47.646,89.023z"></path><path d="M10.977,47.646c-1.302,1.299-1.302,3.408,0,4.711l9.427,9.43l3.535-3.539l-5.742-5.744H30v-5H18.19l0,0l5.752-5.749  l-3.539-3.542L10.977,47.646z"></path><path d="M89.023,52.354c1.302-1.299,1.302-3.408,0-4.71l-9.427-9.43l-3.535,3.539l5.742,5.745H70v5h11.81l0,0l-5.752,5.75  l3.539,3.541L89.023,52.354z"></path><path d="M58.333,35H41.667C38.001,35,35,37.998,35,41.667v16.667C35,61.998,38.001,65,41.667,65h16.666  C61.999,65,65,61.998,65,58.334V41.667C65,37.998,61.999,35,58.333,35z M58.333,58.334H41.667V41.667h16.666V58.334z"></path></svg>