<svg height='100px' width='100px'  fill="#016a5c" xmlns="http://www.w3.org/2000/svg" data-name="Layer 1" viewBox="0 0 64 64" x="0px" y="0px"><title>x</title><path d="M62.09,53,62,53h0L54.59,41.2a1,1,0,0,0-.69-.44,1,1,0,0,0-.79.23,12.2,12.2,0,0,1-3.62,2.17,1,1,0,0,0-.58.61,1,1,0,0,0,.11.84l7.49,11.77a3.38,3.38,0,0,0,2.84,1.55,3.26,3.26,0,0,0,1.7-.48A3.21,3.21,0,0,0,62.09,53ZM60,55.77a1.41,1.41,0,0,1-1.85-.46L51.3,44.52a14.08,14.08,0,0,0,2.21-1.33L60.37,54h0l0,.05A1.22,1.22,0,0,1,60,55.77Z"></path><path d="M33.36,29.29a.89.89,0,0,0,.77-1c0-.29-.05-.57-.06-.86a.88.88,0,0,0-.88-.87h0a.88.88,0,0,0-.87.9c0,.35,0,.7.07,1a.89.89,0,0,0,.88.78Z"></path><path d="M38.33,35.4a8.41,8.41,0,0,1-3.52-4.25.89.89,0,0,0-1.66.62,10.15,10.15,0,0,0,4.27,5.15.84.84,0,0,0,.45.13.87.87,0,0,0,.76-.43A.89.89,0,0,0,38.33,35.4Z"></path><path d="M51.86,27.12a.89.89,0,0,0-.77,1c0,.23,0,.47,0,.71a.89.89,0,0,0,.89.85h0a.88.88,0,0,0,.85-.92c0-.29,0-.57-.06-.86A.88.88,0,0,0,51.86,27.12Z"></path><path d="M51.62,25.93a.88.88,0,0,0,.53-1.13,10.26,10.26,0,0,0-4.23-5.19A.89.89,0,0,0,47,21.13a8.44,8.44,0,0,1,3.49,4.27.89.89,0,0,0,.83.59A.81.81,0,0,0,51.62,25.93Z"></path><path d="M8,8.54v4.7a2.48,2.48,0,0,0,2.47,2.48h18.1a2.48,2.48,0,0,0,2.47-2.48V8.54a2.48,2.48,0,0,0-2.47-2.47H10.48A2.48,2.48,0,0,0,8,8.54Zm2,0a.5.5,0,0,1,.5-.5h18.1a.5.5,0,0,1,.5.5v4.7a.5.5,0,0,1-.5.51H10.48a.5.5,0,0,1-.5-.51Z"></path><circle cx="13.3" cy="10.89" r="1.35"></circle><circle cx="17.8" cy="10.89" r="1.35"></circle><path d="M22,11.88H25.5a1,1,0,0,0,0-2H22a1,1,0,1,0,0,2Z"></path><path d="M30.32,47.1V42.4a2.48,2.48,0,0,0-2.48-2.47H9.74A2.48,2.48,0,0,0,7.27,42.4v4.7a2.48,2.48,0,0,0,2.47,2.47h18.1A2.48,2.48,0,0,0,30.32,47.1Zm-21.08,0V42.4a.5.5,0,0,1,.5-.5h18.1a.5.5,0,0,1,.51.5v4.7a.5.5,0,0,1-.51.5H9.74A.5.5,0,0,1,9.24,47.1Z"></path><circle cx="12.56" cy="44.75" r="1.35"></circle><circle cx="17.07" cy="44.75" r="1.35"></circle><path d="M24.76,43.76H21.28a1,1,0,1,0,0,2h3.48a1,1,0,0,0,0-2Z"></path><path d="M56.36,31.43A13.53,13.53,0,0,0,54.51,21a14.12,14.12,0,0,0-8.82-6.17,14.29,14.29,0,0,0-3.25-.38A13.81,13.81,0,0,0,28.83,25.08,14,14,0,0,0,39.5,41.7a14.34,14.34,0,0,0,3.25.37A13.8,13.8,0,0,0,56.36,31.43ZM42.75,40.1a12.75,12.75,0,0,1-2.81-.32,12,12,0,0,1-9.19-14.25,11.85,11.85,0,0,1,11.69-9.12,12.53,12.53,0,0,1,10.42,5.64A11.59,11.59,0,0,1,54.44,31,11.84,11.84,0,0,1,42.75,40.1Z"></path><path d="M1.44,30.11a2.48,2.48,0,0,0,2.47,2.47H22a2.48,2.48,0,0,0,2.48-2.47v-4.7A2.48,2.48,0,0,0,22,22.94H3.91a2.48,2.48,0,0,0-2.47,2.47Zm2-4.7a.5.5,0,0,1,.5-.5H22a.5.5,0,0,1,.51.5v4.7a.5.5,0,0,1-.51.5H3.91a.5.5,0,0,1-.5-.5Z"></path><circle cx="19.19" cy="27.76" r="1.35"></circle><circle cx="14.69" cy="27.76" r="1.35"></circle><path d="M7,28.74h3.49a1,1,0,0,0,0-2H7a1,1,0,0,0,0,2Z"></path></svg>