<svg height='100px' width='100px'  fill="#006b5c" xmlns="http://www.w3.org/2000/svg" xmlns:xlink="http://www.w3.org/1999/xlink" version="1.1" x="0px" y="0px" viewBox="0 0 32 32" enable-background="new 0 0 32 32" xml:space="preserve"><g display="none"><g display="inline"><polygon fill="#006b5c" points="22.556,0 29.245,6.689 29.245,32 5.08,32 5.08,0   "></polygon><polygon fill="#006b5c" points="29.245,6.689 22.555,6.689 22.555,0   "></polygon><g><rect x="2.755" y="18.313" fill="#006b5c" width="24.093" height="8.118"></rect><polygon fill="#006b5c" points="5.08,28.755 5.08,26.431 2.755,26.431    "></polygon></g></g><text transform="matrix(1 0 0 1 6.0055 24.8354)" display="inline" fill="#006b5c" font-family="'EurostileBold'" font-size="7.3853px">XLSX</text></g><g display="none"><g display="inline"><g><polygon fill="#006b5c" points="22.556,0 29.245,6.689 29.245,32 5.08,32 5.08,0    "></polygon></g><polygon fill="#006b5c" points="29.245,6.689 22.555,6.689 22.555,0   "></polygon><g><polygon fill="#006b5c" points="26.848,26.431 2.755,26.431 2.755,18.313 32,18.313    "></polygon><polygon fill="#006b5c" points="5.08,28.755 5.08,26.431 2.755,26.431    "></polygon></g></g><text transform="matrix(1 0 0 1 6.8388 24.8354)" display="inline" fill="#006b5c" font-family="'EurostileBold'" font-size="7.3853px">XLSX</text></g><g display="none"><g display="inline"><polygon fill="#006b5c" points="22.556,0 29.245,6.689 29.245,32 5.08,32 5.08,0   "></polygon><polygon fill="#006b5c" points="29.245,6.689 22.555,6.689 22.555,0   "></polygon><g><polygon fill="#006b5c" points="26.848,26.431 2.755,26.431 2.755,18.313 32,18.313    "></polygon><polygon fill="#006b5c" points="5.08,28.755 5.08,26.431 2.755,26.431    "></polygon></g></g><text transform="matrix(1 0 0 1 7.4083 24.7163)" display="inline" fill="#006b5c" font-family="'EurostileBold'" font-size="7px">XLSX</text></g><g display="none"><polygon display="inline" fill="#006b5c" points="22.556,0 29.245,6.689 29.245,32 5.08,32 5.08,0  "></polygon><polygon display="inline" fill="#006b5c" points="29.245,6.689 22.555,6.689 22.555,0  "></polygon><g display="inline"><polygon fill="#006b5c" points="26.848,26.431 2.755,26.431 2.755,18.313 32,18.313   "></polygon></g><polygon display="inline" fill="#006b5c" points="5.08,28.755 5.08,26.431 2.755,26.431  "></polygon><g display="inline"><text transform="matrix(1 0 0 1 7.4083 24.7038)" fill="#006b5c" font-family="'EurostileBold'" font-size="7px">XLSX</text></g></g><g display="none"><g display="inline"><g><polygon fill="#006b5c" points="21.082,0.286 27.651,6.856 27.651,31.714 3.919,31.714 3.919,0.286    "></polygon></g><polygon fill="#006b5c" points="27.867,7.493 20.372,7.493 20.372,0   "></polygon><g><path fill="#006b5c" d="M20.764,1l6.103,6.103V31H4.702V1H20.764 M21.178,0H3.702v32h24.165V6.689L21.178,0L21.178,0z"></path></g><g><polygon fill="#006b5c" points="25.47,26.431 1.378,26.431 1.378,18.313 30.622,18.313    "></polygon><polygon points="3.702,28.755 3.702,26.431 1.378,26.431    "></polygon></g></g><text transform="matrix(1 0 0 1 7.4083 24.4376)" display="inline" fill="#006b5c" font-family="'EurostileBold'" font-size="6.2px">XLSX</text></g><g display="none"><g display="inline"><circle fill="#006b5c" cx="16" cy="16" r="16"></circle><g><defs><circle id="g" cx="16" cy="16" r="16"></circle></defs><clipPath id="f"><use xlink:href="#g" overflow="visible"></use></clipPath><polygon clip-path="url(#f)" fill="#006b5c" points="23.417,10.181 33.884,20.648 33.884,32.886 16.216,33.948 8.268,26         "></polygon></g></g><g display="inline"><g><polygon fill="#006b5c" points="19.237,6 23.417,10.181 23.417,26 8.314,26 8.314,6    "></polygon><polygon fill="#006b5c" points="23.417,10.181 19.236,10.181 19.236,6    "></polygon><g><polygon fill="#006b5c" points="21.919,22.519 6.861,22.519 6.861,17.446 25.139,17.446     "></polygon><polygon fill="#006b5c" points="8.314,23.972 8.314,22.519 6.861,22.519     "></polygon></g></g><text transform="matrix(1 0 0 1 9.7689 21.4482)" fill="#006b5c" font-family="'EurostileBold'" font-size="4.375px">XLSX</text></g></g><g display="none"><g display="inline"><circle fill="#006b5c" cx="16" cy="16" r="16"></circle><g><defs><circle id="e" cx="16" cy="16" r="16"></circle></defs><clipPath id="d"><use xlink:href="#e" overflow="visible"></use></clipPath><polygon clip-path="url(#d)" fill="#006b5c" points="23.417,10.181 33.884,20.648 33.884,32.886 16.216,33.948 8.268,26         "></polygon></g></g><g display="inline"><g><polygon fill="#006b5c" points="19.237,6 23.417,10.181 23.417,26 8.314,26 8.314,6    "></polygon><polygon fill="#006b5c" points="23.417,10.181 19.236,10.181 19.236,6    "></polygon><g><polygon fill="#006b5c" points="21.919,22.519 6.861,22.519 6.861,17.446 25.139,17.446     "></polygon><polygon fill="#006b5c" points="8.314,23.972 8.314,22.519 6.861,22.519     "></polygon></g></g><text transform="matrix(1 0 0 1 9.7689 21.4482)" fill="#006b5c" font-family="'EurostileBold'" font-size="4.375px">XLSX</text></g></g><g display="none"><g display="inline"><g><g><path fill="#006b5c" d="M5.917,31.5c-0.827,0-1.5-0.673-1.5-1.5V2c0-0.827,0.673-1.5,1.5-1.5h20.165c0.827,0,1.5,0.673,1.5,1.5      v28c0,0.827-0.673,1.5-1.5,1.5H5.917z"></path></g><g><g><path fill="#006b5c" d="M26.082,1c0.551,0,1,0.449,1,1v28c0,0.551-0.449,1-1,1H5.918c-0.551,0-1-0.449-1-1V2       c0-0.551,0.449-1,1-1H26.082 M26.082,0H5.918c-1.1,0-2,0.9-2,2v28c0,1.1,0.9,2,2,2h20.165c1.1,0,2-0.9,2-2V2       C28.082,0.9,27.182,0,26.082,0L26.082,0z"></path></g></g></g><g><g><g><rect x="3.917" y="18.313" fill="#006b5c" width="24.165" height="8.118"></rect></g></g></g><g><polyline fill="#006b5c" points="3.918,26.392 3.918,18.313 11.996,18.313    "></polyline></g></g><g display="inline"><path fill="#006b5c" d="M11.858,19.913l-1.479,2.383l1.576,2.539H10.86l-0.707-1.183c-0.108-0.183-0.212-0.368-0.311-0.556    l-0.101-0.194l-0.104-0.191H9.623l-0.104,0.194c-0.125,0.236-0.267,0.485-0.426,0.747l-0.71,1.183H7.257l1.615-2.539l-1.5-2.383    h1.114l0.656,1.096c0.104,0.173,0.2,0.344,0.292,0.512l0.09,0.174l0.091,0.173h0.014c0.041-0.077,0.071-0.135,0.091-0.173    l0.09-0.17c0.077-0.148,0.173-0.319,0.288-0.512l0.656-1.1H11.858z"></path><path fill="#006b5c" d="M13.297,19.913v4.085h2.308v0.837h-3.242v-4.922H13.297z"></path><path fill="#006b5c" d="M19.731,21.348h-0.912c-0.005-0.046-0.008-0.079-0.008-0.101c-0.021-0.276-0.083-0.45-0.184-0.521    c-0.101-0.07-0.339-0.106-0.715-0.106c-0.442,0-0.731,0.041-0.867,0.123s-0.203,0.254-0.203,0.516c0,0.31,0.055,0.496,0.166,0.559    c0.11,0.062,0.476,0.111,1.096,0.145c0.733,0.041,1.208,0.146,1.423,0.313c0.215,0.169,0.323,0.519,0.323,1.05    c0,0.653-0.127,1.076-0.379,1.268c-0.253,0.19-0.81,0.286-1.67,0.286c-0.774,0-1.288-0.094-1.542-0.281    c-0.253-0.188-0.38-0.567-0.38-1.14l-0.004-0.18h0.909l0.003,0.104c0,0.344,0.061,0.554,0.181,0.631s0.448,0.115,0.984,0.115    c0.418,0,0.686-0.044,0.801-0.133s0.173-0.295,0.173-0.617c0-0.238-0.044-0.396-0.131-0.474c-0.088-0.078-0.277-0.126-0.568-0.143    l-0.516-0.033c-0.779-0.045-1.277-0.153-1.493-0.324c-0.217-0.171-0.324-0.537-0.324-1.1c0-0.574,0.13-0.958,0.391-1.148    c0.261-0.191,0.782-0.287,1.563-0.287c0.741,0,1.239,0.088,1.497,0.264c0.257,0.176,0.386,0.518,0.386,1.027V21.348z"></path><path fill="#006b5c" d="M24.646,19.913l-1.479,2.383l1.575,2.539h-1.096l-0.707-1.183c-0.108-0.183-0.212-0.368-0.311-0.556    l-0.101-0.194l-0.104-0.191H22.41l-0.104,0.194c-0.125,0.236-0.267,0.485-0.426,0.747l-0.71,1.183h-1.125l1.615-2.539l-1.5-2.383    h1.114l0.656,1.096c0.104,0.173,0.201,0.344,0.292,0.512l0.091,0.174l0.09,0.173h0.015c0.04-0.077,0.07-0.135,0.09-0.173    l0.09-0.17c0.077-0.148,0.173-0.319,0.289-0.512l0.656-1.1H24.646z"></path></g></g><g display="none"><g display="inline"><g><path fill="#006b5c" d="M26.082,32H5.917c-1.1,0-2-0.9-2-2V2c0-1.1,0.9-2,2-2h20.165c1.1,0,2,0.9,2,2v28     C28.082,31.1,27.182,32,26.082,32z"></path><g><g><defs><polygon id="c" points="21.394,0 28.082,6.689 28.082,32 3.918,32 3.918,0       "></polygon></defs><clipPath><use xlink:href="#c" overflow="visible"></use></clipPath></g></g><g><defs><path id="b" d="M26.082,32H5.917c-1.1,0-2-0.9-2-2V2c0-1.1,0.9-2,2-2h20.165c1.1,0,2,0.9,2,2v28       C28.082,31.1,27.182,32,26.082,32z"></path></defs><clipPath id="a"><use xlink:href="#b" overflow="visible"></use></clipPath><polyline clip-path="url(#a)" fill="#006b5c" points="21.344,-0.234 28.406,-0.234 28.406,6.828     "></polyline></g><polygon fill="#006b5c" points="21.021,0 28.083,7.061 28.083,6.354 21.729,0    "></polygon></g><g><g><path fill="#006b5c" d="M24.229,17.932c0.874,0,1.585,0.711,1.585,1.585v5.733c0,0.874-0.711,1.585-1.585,1.585H7.771      c-0.874,0-1.585-0.711-1.585-1.585v-5.733c0-0.874,0.711-1.585,1.585-1.585H24.229 M24.229,17.432H7.771      c-1.147,0-2.085,0.938-2.085,2.085v5.733c0,1.147,0.938,2.085,2.085,2.085h16.459c1.147,0,2.085-0.938,2.085-2.085v-5.733      C26.314,18.37,25.376,17.432,24.229,17.432L24.229,17.432z"></path></g></g></g><g display="inline"><path fill="#006b5c" d="M12.119,20.068l-1.385,2.233l1.477,2.379h-1.027l-0.662-1.108c-0.102-0.171-0.199-0.345-0.291-0.521    l-0.094-0.182l-0.098-0.179h-0.014l-0.098,0.182c-0.117,0.221-0.25,0.455-0.399,0.7L8.863,24.68H7.809l1.513-2.379l-1.405-2.233    h1.044l0.615,1.027c0.097,0.162,0.188,0.322,0.274,0.479l0.084,0.163l0.085,0.162h0.013c0.038-0.072,0.067-0.126,0.085-0.162    l0.084-0.159c0.072-0.139,0.162-0.299,0.27-0.479l0.615-1.03H12.119z"></path><path fill="#006b5c" d="M13.468,20.068v3.827h2.162v0.784h-3.038v-4.612H13.468z"></path><path fill="#006b5c" d="M19.496,21.412h-0.855c-0.005-0.043-0.007-0.074-0.007-0.094c-0.02-0.259-0.078-0.422-0.172-0.489    c-0.094-0.066-0.318-0.1-0.67-0.1c-0.414,0-0.685,0.038-0.813,0.115c-0.127,0.077-0.19,0.238-0.19,0.483    c0,0.29,0.051,0.465,0.156,0.523c0.103,0.059,0.446,0.104,1.027,0.135c0.687,0.038,1.132,0.136,1.333,0.294    c0.201,0.158,0.303,0.486,0.303,0.984c0,0.612-0.119,1.008-0.355,1.188c-0.237,0.178-0.759,0.268-1.565,0.268    c-0.726,0-1.207-0.088-1.445-0.264c-0.237-0.176-0.356-0.532-0.356-1.068l-0.004-0.168h0.852l0.003,0.098    c0,0.322,0.057,0.519,0.169,0.591c0.113,0.072,0.42,0.108,0.922,0.108c0.392,0,0.642-0.041,0.75-0.124    c0.108-0.083,0.162-0.276,0.162-0.578c0-0.223-0.041-0.371-0.123-0.444c-0.082-0.073-0.26-0.118-0.533-0.134l-0.483-0.031    c-0.73-0.042-1.197-0.144-1.399-0.304c-0.203-0.16-0.304-0.503-0.304-1.03c0-0.538,0.122-0.898,0.366-1.076    c0.244-0.179,0.733-0.269,1.465-0.269c0.694,0,1.161,0.082,1.403,0.247c0.241,0.165,0.361,0.485,0.361,0.963V21.412z"></path><path fill="#006b5c" d="M24.101,20.068l-1.385,2.233l1.476,2.379h-1.027l-0.662-1.108c-0.102-0.171-0.199-0.345-0.291-0.521    l-0.094-0.182l-0.098-0.179h-0.014l-0.098,0.182c-0.117,0.221-0.25,0.455-0.399,0.7l-0.665,1.108h-1.054l1.513-2.379l-1.405-2.233    h1.044l0.615,1.027c0.097,0.162,0.188,0.322,0.274,0.479l0.085,0.163l0.084,0.162h0.014c0.038-0.072,0.066-0.126,0.084-0.162    l0.084-0.159c0.072-0.139,0.162-0.299,0.271-0.479l0.615-1.03H24.101z"></path></g></g><g display="none"><g display="inline"><g><polygon fill="#006b5c" points="29.047,7.517 21.727,7.517 21.727,0.198 22.727,0.198 22.727,6.517 29.047,6.517    "></polygon></g><path fill="#006b5c" d="M5.08,32h24.165V6.689L22.556,0H5.08v15.937H2.755v10.494h0l2.324,2.324L5.08,32z M3.755,16.937h21.619    v8.494H3.755V16.937z M28.245,31H6.08v-4.569h20.294V15.937H6.08V1h16.062l6.103,6.103V31z"></path></g><g display="inline"><text transform="matrix(1 0 0 1 6.2299 23.536)" fill="#006b5c" font-family="'EurostileBold'" font-size="7px">XLSX</text></g></g><g display="none"><g display="inline"><polyline fill="#006b5c" stroke="#006b5c" stroke-width="0.5" stroke-miterlimit="10" points="5.254,26.268 5.254,31.75     29.034,31.75 29.034,6.834 22.452,0.25 5.254,0.25 5.254,15.938   "></polyline><polyline fill="#006b5c" stroke="#006b5c" stroke-width="0.5" stroke-miterlimit="10" points="28.839,7.157 22.127,7.157     22.127,0.445   "></polyline><polyline fill="#006b5c" stroke="#006b5c" stroke-width="0.5" stroke-miterlimit="10" points="5.272,28.575 2.966,26.268     2.966,15.938 26.209,15.938 26.209,26.268 2.966,26.268   "></polyline></g><g display="inline"><g><text transform="matrix(1 0 0 1 6.2299 23.4462)" fill="#006b5c" font-family="'EurostileBold'" font-size="7px">XLSX</text></g></g></g><g><g><path d="M4.805,0v14.941h-2.17v11.251l2.17,2.179V32h24.561V6.857L22.536,0H4.805z M22.813,3.112l3.451,3.466h-3.451V3.112z     M4.635,16.941h19.103v7.838H4.635V16.941z M6.805,30v-3.221h18.933V14.941H6.805V2h14.009v6.578h6.552V30H6.805z"></path><path d="M10.451,18.385H9.109l-0.658,1.104c-0.11,0.186-0.203,0.349-0.276,0.491l-0.066,0.127L8.04,19.976    c-0.087-0.161-0.181-0.325-0.279-0.491l-0.658-1.1H5.748l1.501,2.385l-1.611,2.531h1.364l0.71-1.182    c0.142-0.232,0.277-0.47,0.403-0.706l0.091,0.173c0.094,0.18,0.193,0.357,0.297,0.533l0.706,1.182h1.335L8.973,20.77    L10.451,18.385z"></path><polygon points="11.716,18.385 10.58,18.385 10.58,23.301 13.903,23.301 13.903,22.258 11.716,22.258   "></polygon><path d="M17.572,20.65c-0.228-0.177-0.691-0.283-1.419-0.324c-0.768-0.041-0.944-0.098-0.984-0.121    c-0.016-0.009-0.094-0.069-0.094-0.42c0-0.2,0.045-0.328,0.133-0.382c0.062-0.036,0.241-0.099,0.758-0.099    c0.445,0,0.571,0.055,0.604,0.079c0.029,0.02,0.098,0.1,0.121,0.392c0,0.022,0.002,0.06,0.008,0.109l0.012,0.111h1.103v-0.303    c0-0.525-0.142-0.888-0.421-1.078c-0.269-0.183-0.756-0.271-1.488-0.271c-0.774,0-1.284,0.097-1.557,0.297    c-0.283,0.207-0.421,0.596-0.421,1.189c0,0.578,0.116,0.951,0.355,1.14c0.228,0.181,0.713,0.29,1.484,0.335l0.489,0.031    c0.334,0.019,0.434,0.078,0.462,0.103c0.031,0.028,0.083,0.111,0.083,0.356c0,0.345-0.072,0.452-0.116,0.485    c-0.048,0.037-0.201,0.101-0.682,0.101c-0.655,0-0.823-0.062-0.865-0.09c-0.034-0.021-0.113-0.113-0.113-0.497l-0.009-0.22h-1.109    l0.007,0.296c0,0.59,0.135,0.976,0.411,1.181c0.265,0.195,0.767,0.291,1.535,0.291c0.851,0,1.393-0.097,1.659-0.297    c0.273-0.209,0.407-0.635,0.407-1.301C17.926,21.194,17.811,20.836,17.572,20.65z"></path><path d="M22.571,18.385h-1.342l-0.658,1.104c-0.11,0.186-0.203,0.349-0.276,0.491l-0.067,0.127l-0.067-0.131    c-0.088-0.162-0.181-0.325-0.279-0.491l-0.66-1.1h-1.353l1.501,2.385l-1.611,2.531h1.364l0.709-1.182    c0.146-0.241,0.282-0.479,0.404-0.705l0.09,0.173c0.095,0.18,0.193,0.357,0.298,0.532l0.706,1.182h1.335l-1.571-2.531    L22.571,18.385z"></path></g></g><g display="none"><g display="inline"><path fill="#006b5c" d="M22.556,0H5.08v15.937H2.755v10.494h0L5.08,26.43l0,5.57h24.165V6.689L22.556,0z M22.727,1.585    l4.932,4.932h-4.932V1.585z M3.755,25.431v-8.494h21.619v8.494H3.755z"></path></g><g display="inline"><g><path fill="#006b5c" d="M10.57,18.87l-1.401,2.26l1.494,2.406H9.624l-0.67-1.121c-0.103-0.173-0.201-0.349-0.294-0.526     l-0.096-0.185l-0.1-0.182H8.451l-0.099,0.186c-0.119,0.223-0.253,0.459-0.403,0.707l-0.674,1.121H6.209L7.74,21.13l-1.422-2.26     h1.057l0.622,1.039c0.098,0.164,0.19,0.326,0.276,0.486l0.086,0.164l0.085,0.164h0.014c0.039-0.073,0.067-0.128,0.086-0.164     l0.085-0.161c0.073-0.142,0.164-0.303,0.273-0.485l0.622-1.043H10.57z"></path><path fill="#006b5c" d="M11.935,18.87v3.873h2.188v0.793h-3.073V18.87H11.935z"></path><path fill="#006b5c" d="M18.032,20.231h-0.865c-0.005-0.044-0.007-0.076-0.007-0.096c-0.021-0.263-0.078-0.427-0.174-0.494     s-0.321-0.102-0.677-0.102c-0.42,0-0.693,0.039-0.822,0.117c-0.129,0.077-0.193,0.24-0.193,0.488     c0,0.294,0.053,0.471,0.157,0.529c0.105,0.06,0.451,0.105,1.039,0.137c0.695,0.039,1.145,0.139,1.349,0.298     s0.306,0.491,0.306,0.995c0,0.619-0.12,1.02-0.358,1.201c-0.24,0.181-0.767,0.271-1.583,0.271c-0.733,0-1.221-0.089-1.461-0.267     s-0.36-0.538-0.36-1.08l-0.004-0.171h0.861l0.004,0.1c0,0.325,0.057,0.524,0.171,0.598c0.113,0.073,0.425,0.109,0.933,0.109     c0.396,0,0.649-0.042,0.759-0.127c0.109-0.084,0.164-0.278,0.164-0.584c0-0.226-0.042-0.375-0.125-0.449     s-0.262-0.119-0.538-0.135l-0.488-0.031c-0.738-0.043-1.21-0.146-1.415-0.308s-0.308-0.509-0.308-1.042     c0-0.545,0.123-0.908,0.37-1.089c0.248-0.182,0.741-0.272,1.482-0.272c0.701,0,1.174,0.084,1.418,0.25s0.366,0.491,0.366,0.975     V20.231z"></path><path fill="#006b5c" d="M22.69,18.87l-1.401,2.26l1.494,2.406h-1.039l-0.67-1.121c-0.104-0.173-0.201-0.349-0.295-0.526     l-0.096-0.185l-0.099-0.182h-0.014l-0.099,0.186c-0.119,0.223-0.254,0.459-0.404,0.707l-0.673,1.121h-1.066l1.531-2.406     l-1.422-2.26h1.056l0.623,1.039c0.098,0.164,0.189,0.326,0.276,0.486l0.085,0.164l0.086,0.164h0.014     c0.039-0.073,0.067-0.128,0.086-0.164l0.085-0.161c0.073-0.142,0.164-0.303,0.273-0.485l0.622-1.043H22.69z"></path></g></g></g></svg>