<svg height='100px' width='100px'  fill="#016a5c" xmlns="http://www.w3.org/2000/svg" xmlns:xlink="http://www.w3.org/1999/xlink" version="1.1" x="0px" y="0px" viewBox="0 0 600 600" style="enable-background:new 0 0 600 600;" xml:space="preserve"><g><g><g><path d="M399.987,275.107c-4.39,0-8.807-1.437-12.497-4.396C362.43,250.62,332.176,240,300,240     c-32.176,0-62.43,10.62-87.49,30.711c-6.001,4.812-14.229,5.754-21.165,2.427C184.411,269.809,180,262.799,180,255.107V160     c0-66.168,53.832-120,120-120c66.168,0,120,53.832,120,120c0,11.046-8.954,20-20,20s-20-8.954-20-20c0-44.112-35.888-80-80-80     s-80,35.888-80,80v58.779C244.724,206.534,272.17,200,300,200c40.779,0,80.736,14.029,112.51,39.502     c8.618,6.909,10.004,19.497,3.095,28.115C411.654,272.544,405.847,275.107,399.987,275.107z"></path></g><g><path d="M300,560c-99.252,0-180-80.748-180-180c0-54.901,24.599-106.111,67.49-140.498C219.263,214.029,259.22,200,300,200     c40.779,0,80.736,14.029,112.511,39.502C455.401,273.889,480,325.099,480,380C480,479.252,399.252,560,300,560z M300,240     c-32.176,0-62.43,10.62-87.49,30.711C179.139,297.465,160,337.3,160,380c0,77.196,62.804,140,140,140s140-62.804,140-140     c0-42.7-19.14-82.535-52.511-109.289C362.43,250.62,332.176,240,300,240z"></path></g><g><path d="M300,460c-11.046,0-20-8.954-20-20V340c0-11.046,8.954-20,20-20s20,8.954,20,20v100C320,451.046,311.046,460,300,460z"></path></g></g></g></svg>