<svg height='100px' width='100px'  fill="#006c5c" xmlns:x="http://ns.adobe.com/Extensibility/1.0/" xmlns:i="http://ns.adobe.com/AdobeIllustrator/10.0/" xmlns:graph="http://ns.adobe.com/Graphs/1.0/" xmlns="http://www.w3.org/2000/svg" xmlns:xlink="http://www.w3.org/1999/xlink" version="1.1" x="0px" y="0px" viewBox="0 0 100 100" style="enable-background:new 0 0 100 100;" xml:space="preserve"><g><g i:extraneous="self"><g><path d="M50.8,39.1l-21.4-27c-1.2-1.5-3.6-1.5-4.8,0l-21.4,27c-1.6,2-0.2,4.9,2.4,4.9h10.4v41.6c0,1.8,1.5,3.3,3.3,3.3h15.4     c1.8,0,3.3-1.5,3.3-3.3V44.1h10.4C50.9,44.1,52.4,41.1,50.8,39.1z"></path><path d="M94.4,55.9H84.1V14.3c0-1.8-1.5-3.3-3.3-3.3H65.3c-1.8,0-3.3,1.5-3.3,3.3v41.6H51.6c-2.6,0-4,2.9-2.4,4.9l21.4,27     c1.2,1.5,3.6,1.5,4.8,0l21.4-27C98.4,58.9,97,55.9,94.4,55.9z"></path></g></g></g></svg>