<svg height='100px' width='100px'  fill="#016a5c" xmlns="http://www.w3.org/2000/svg" xmlns:xlink="http://www.w3.org/1999/xlink" xmlns:serif="http://www.serif.com/" viewBox="0 0 32 32" version="1.1" xml:space="preserve" style="" x="0px" y="0px" fill-rule="evenodd" clip-rule="evenodd" stroke-linejoin="round" stroke-miterlimit="2"><g transform="matrix(1,0,0,1,-96,-32)"><g><path d="M108,37.001C107.087,35.786 105.635,35 104,35C101.24,35 99,37.24 99,40C99,41.125 99.372,42.164 100.001,43C99.204,43 98.441,43.316 97.879,43.879C97.316,44.441 97,45.204 97,46L97,58C97,58.796 97.316,59.559 97.879,60.121C98.441,60.684 99.204,61 100,61C103.832,61 112.168,61 116,61C116.796,61 117.559,60.684 118.121,60.121C118.684,59.559 119,58.796 119,58L119,56L122.2,58.4C123.109,59.082 124.325,59.191 125.342,58.683C126.358,58.175 127,57.136 127,56L127,48C127,46.864 126.358,45.825 125.342,45.317C124.325,44.809 123.109,44.918 122.2,45.6L119,48L119,46C119,45.204 118.684,44.441 118.121,43.879C117.559,43.316 116.796,43 116,43L115.999,43C116.628,42.164 117,41.125 117,40C117,37.24 114.76,35 112,35C110.365,35 108.913,35.786 108,37.001ZM100,45L116,45C116.265,45 116.52,45.105 116.707,45.293C116.895,45.48 117,45.735 117,46L117,58C117,58.265 116.895,58.52 116.707,58.707C116.52,58.895 116.265,59 116,59L100,59C99.735,59 99.48,58.895 99.293,58.707C99.105,58.52 99,58.265 99,58C99,58 99,46 99,46C99,45.735 99.105,45.48 99.293,45.293C99.48,45.105 99.735,45 100,45ZM119,53.5L119,50.5L123.4,47.2C123.703,46.973 124.108,46.936 124.447,47.106C124.786,47.275 125,47.621 125,48L125,56C125,56.379 124.786,56.725 124.447,56.894C124.108,57.064 123.703,57.027 123.4,56.8L119,53.5ZM104,37C105.656,37 107,38.344 107,40C107,41.656 105.656,43 104,43C102.344,43 101,41.656 101,40C101,38.344 102.344,37 104,37ZM112,37C113.656,37 115,38.344 115,40C115,41.656 113.656,43 112,43C110.344,43 109,41.656 109,40C109,38.344 110.344,37 112,37Z"></path></g></g></svg>